<svg xmlns="http://www.w3.org/2000/svg" viewBox="0 0 932.95 885.63"><defs><style>.cls-1{isolation:isolate;}.cls-2{fill:#c7d1db;}.cls-3{fill:#fdcf23;}.cls-4{fill:#1f3fad;}.cls-5{fill:#fd7706;}.cls-6{mix-blend-mode:multiply;}.cls-7{fill:#fff;}.cls-8{fill:#a7acb4;}.cls-9{fill:#f5cf4f;}</style></defs><g class="cls-1"><g id="Layer_2" data-name="Layer 2"><g id="Layer_1-2" data-name="Layer 1"><rect x="7.5" y="165.05" width="875.6" height="679.6"/><path d="M883.6,845.16H7V164.55H883.6ZM8,844.16H882.6V165.55H8Z"/><rect x="7.5" y="56.4" width="875.6" height="112.91"/><path d="M883.6,169.81H7V55.9H883.6ZM8,168.81H882.6V56.9H8Z"/><rect x="7.5" y="838.27" width="875.6" height="46.87"/><path d="M883.6,885.63H7V837.77H883.6ZM8,884.63H882.6V838.77H8Z"/><path d="M605.48,22,592.32,10.48a12.64,12.64,0,0,0-8.27-3H293.41a12.91,12.91,0,0,0-8.47,3.05L271.85,22a32.24,32.24,0,0,1-21.16,7.63H7.5v31H883.1v-31H626.66A32.27,32.27,0,0,1,605.48,22Z"/><path d="M883.6,61.16H7v-32H250.69a31.89,31.89,0,0,0,20.83-7.51l13.09-11.48A13.48,13.48,0,0,1,293.41,7H584.05a13.14,13.14,0,0,1,8.6,3.11l13.16,11.54a31.92,31.92,0,0,0,20.85,7.52H883.6ZM8,60.16H882.6v-30H626.66a32.92,32.92,0,0,1-21.51-7.77L592,10.86A12.14,12.14,0,0,0,584.05,8H293.41a12.48,12.48,0,0,0-8.14,2.93L272.18,22.41a32.89,32.89,0,0,1-21.49,7.76H8Z"/><rect class="cls-2" x="0.5" y="158.05" width="875.6" height="679.6"/><path d="M876.6,838.16H0V157.55H876.6ZM1,837.16H875.6V158.55H1Z"/><rect class="cls-3" x="0.5" y="49.4" width="875.6" height="112.91"/><path d="M876.6,162.81H0V48.9H876.6ZM1,161.81H875.6V49.9H1Z"/><rect class="cls-4" x="0.5" y="831.27" width="875.6" height="46.87"/><path d="M876.6,878.63H0V830.77H876.6ZM1,877.63H875.6V831.77H1Z"/><path class="cls-5" d="M598.48,15,585.32,3.48a12.64,12.64,0,0,0-8.27-3H286.41a12.91,12.91,0,0,0-8.47,3.05L264.85,15a32.24,32.24,0,0,1-21.16,7.63H.5v31H876.1v-31H619.66A32.27,32.27,0,0,1,598.48,15Z"/><path d="M876.6,54.16H0v-32H243.69a31.89,31.89,0,0,0,20.83-7.51L277.61,3.18A13.48,13.48,0,0,1,286.41,0H577.05a13.14,13.14,0,0,1,8.6,3.11l13.16,11.54a31.92,31.92,0,0,0,20.85,7.52H876.6ZM1,53.16H875.6v-30H619.66a32.92,32.92,0,0,1-21.51-7.77L585,3.86A12.14,12.14,0,0,0,577.05,1H286.41a12.48,12.48,0,0,0-8.14,2.93L265.18,15.41a32.89,32.89,0,0,1-21.49,7.76H1Z"/><g id="DFYOGy" class="cls-6"><path d="M674.67,106.79a7.52,7.52,0,0,1-.27-.92c-.09-.7-.85-1.41.16-2.09a3.56,3.56,0,0,1,2.1-.83c4.18,0,8.37,0,12.55,0a2.61,2.61,0,0,0,2.14-.88c1.26-1.38,2.61-2.69,3.9-4l39.68,39.67-6.68,4.51-.83-2.62-2.75.3-.81-2.67-2.76.3-.81-2.68c-.7.09-1.39.15-2.06.27-.51.09-.79,0-.91-.57s-.38-1.33-.59-2.06l-2.78.3-.8-2.65c-.52,0-1,.07-1.42.12-1.37.14-1.36.14-1.75-1.21-.13-.43-.27-.85-.41-1.3l-2.74.32-.83-2.68-2.76.3-.8-2.67-2.77.3-.81-2.67-2.75.31-.82-2.67a9.59,9.59,0,0,0-1.76.19c-.89.29-1.17-.12-1.32-.89-.11-.55-.31-1.09-.49-1.68l-2.72.31c-.21-.72-.43-1.43-.62-2.15-.12-.46-.34-.64-.84-.53-.68.14-1.37.2-2.11.3l-.85-2.64-2.77.25-.79-2.64a16.29,16.29,0,0,0-1.89.22c-.65.16-1,.07-1.14-.67a15.45,15.45,0,0,0-.56-1.92Z"/><path d="M718.58,98.17c1.36,1.37,2.8,2.78,4.2,4.24a1.82,1.82,0,0,0,1.43.58c4.4,0,8.79.05,13.19,0,1,0,1.63.68,2.36,1.18a.57.57,0,0,1,.09.49c-.19.69-.41,1.38-.63,2.09l-2.74-.32-.83,2.68a17.27,17.27,0,0,1-2.1-.24c-.63-.16-.81.13-.94.63s-.36,1.27-.55,2c-.74-.1-1.4-.16-2-.28s-.83,0-.93.61a16.94,16.94,0,0,1-.56,2.07c-.7-.1-1.35-.15-2-.3s-.87.1-1,.67-.37,1.27-.57,2l-2.79-.38-.79,2.74-2.73-.31-.33.7-10.23-10.38Z"/><path d="M694.18,95.72c-1.56,1.53-3.07,3-4.62,4.53a1.14,1.14,0,0,1-.75.19c-4.6,0-9.2,0-13.81,0a1.51,1.51,0,0,1-1-.53c-2.11-2.72-4.2-5.47-6.28-8.22-1-1.39-.94-2.39.64-3.16,2-1,4.07-1.63,6.13-2.41a6.3,6.3,0,0,1,1.13-.31c1.4-.26,2.37-.88,2.24-2.5a1.38,1.38,0,0,1,.09-.44c.54-1.91,1.31-2.11,2.7-.72l12.78,12.78C693.65,95.14,693.87,95.38,694.18,95.72Zm-24.7-4.23c.93,1.08,1.92,2.1,2.76,3.24a2.64,2.64,0,0,0,3.34,1c1.88-.66,3.74-1.37,5.59-2.1,1.24-.48,2.47-1,3.67-1.57.95-.45,1-1.08.34-1.87-.32-.36-.67-.7-1-1a2.68,2.68,0,0,0-3.08-.59c-2.64,1-5.35,1.93-8,3C671.83,92.16,670.71,92.48,669.48,91.49Zm8.2,6.68c-.55-.37-.9-.79-1.16-.74s-.54.51-.81.8c.29.25.55.68.85.71S677.15,98.56,677.68,98.17Zm13.1-3.8c-.35.54-.74.87-.7,1.16s.51.73.77.71a1.07,1.07,0,0,0,.74-.76C691.61,95.2,691.18,94.89,690.78,94.37Zm-3.63,2.54c-.37.54-.77.86-.74,1.14s.47.75.72.75a1.07,1.07,0,0,0,.77-.73C687.94,97.8,687.53,97.47,687.15,96.91Z"/><path d="M719.7,95.68,729.44,86c1.4-1.39,2.78-2.79,4.18-4.17,1-.93,1.59-.81,2.1.43a5.16,5.16,0,0,1,.44,1.84,1.42,1.42,0,0,0,1.22,1.45c1.47.45,3,.81,4.42,1.33a24.51,24.51,0,0,1,3.87,1.75c1.46.85,1.56,1.7.55,3-2.07,2.76-4.15,5.51-6.28,8.23a1.71,1.71,0,0,1-1.18.57q-6.76.06-13.54,0a2,2,0,0,1-1.17-.47C722.6,98.59,721.2,97.17,719.7,95.68Zm24.76-4.2-.12-.11a5.89,5.89,0,0,0-.54.32,2.19,2.19,0,0,1-2.41.18c-2.87-1.18-5.8-2.23-8.7-3.35a2.56,2.56,0,0,0-2.78.49,11,11,0,0,0-1,.95c-1,1.09-.9,1.68.5,2.29s2.67,1.14,4,1.66c1.65.65,3.31,1.31,5,1.85a2.22,2.22,0,0,0,2.48-.28C742.13,94.17,743.28,92.81,744.46,91.48Zm-5.94,6.77c-.52-.4-.83-.83-1.13-.82a1.08,1.08,0,0,0-.76.75c0,.25.43.73.72.76S738,98.59,738.52,98.25Zm-11.71-1.34c-.41.53-.84.84-.82,1.12a1.1,1.1,0,0,0,.73.78c.25,0,.72-.43.77-.72S727.16,97.47,726.81,96.91Zm-2.58-1.41c-.55-.38-.89-.79-1.16-.75s-.55.5-.82.77c.28.26.53.69.84.73S723.69,95.88,724.23,95.5Z"/><path d="M704.44,127.37c-.25.84-.54,1.64-.72,2.46-.13.56-.4.66-.9.57-.65-.11-1.31-.18-2.06-.28L700,132.8l-2.76-.29-.83,2.67-2.75-.3-.81,2.66-2.75-.29-.83,2.66-2.74-.3-.82,2.63L679,137.76l15.58-15.6c.7,1.13,1.87.3,3,.5.16,2.18,1.35,3,3.41,2.23C702,127.37,702,127.37,704.44,127.37Z"/></g><path d="M315.72,141.48H153.36V77.6H315.72Zm-161.36-1H314.72V78.6H154.36Z"/><path d="M87.67,121.68a14.62,14.62,0,1,1,14.62-14.62A14.64,14.64,0,0,1,87.67,121.68Zm0-28.24a13.62,13.62,0,1,0,13.62,13.62A13.64,13.64,0,0,0,87.67,93.44Z"/><rect x="87.17" y="72.68" width="1" height="68.77"/><rect x="53.29" y="106.56" width="68.77" height="1"/><path d="M206.27,114h11.27v3.71H201v-2.41c0-8.9,12.09-7.68,12.09-11.87,0-1.36-.91-2.49-3.38-2.49-2.22,0-3.87.84-3.85,2.9h-4.66c0-4.33,2.84-6.75,8.27-6.75s8.26,2.32,8.26,6.12C217.68,110.42,207.22,108.63,206.27,114Z"/><path d="M219.12,107.62c0-7.1,3.63-10.57,9.54-10.57s9.55,3.47,9.55,10.57-3.66,10.58-9.55,10.58S219.12,114.73,219.12,107.62Zm14.4,0c0-4.64-2-6.53-4.86-6.53s-4.85,1.89-4.85,6.53,1.94,6.54,4.85,6.54S233.52,112.27,233.52,107.62Z"/><path d="M245,114h11.27v3.71H239.67v-2.41c0-8.9,12.09-7.68,12.09-11.87,0-1.36-.91-2.49-3.38-2.49-2.22,0-3.87.84-3.85,2.9h-4.67c0-4.33,2.85-6.75,8.28-6.75s8.26,2.32,8.26,6.12C256.4,110.42,245.94,108.63,245,114Z"/><path d="M272.46,114v3.71H258.31V114h5.22V102.29a6.93,6.93,0,0,1-4.83,1.46v-4a6.91,6.91,0,0,0,4.83-2.15h4.79V114Z"/><circle cx="408.97" cy="26.82" r="5.08"/><circle cx="432.65" cy="26.82" r="5.08"/><circle cx="456.34" cy="26.82" r="5.08"/><rect class="cls-3" x="877.05" y="656.53" width="55.39" height="159.78"/><path d="M933,816.81h-56.4V656H933Zm-55.4-1H932V657h-54.4Z"/><path d="M642.39,149.94a.5.5,0,0,1-.35-.15l-6.13-6.13a5.15,5.15,0,0,1-1.52-3.67V79.58a5.14,5.14,0,0,1,1.53-3.68l5.2-5.2a.5.5,0,0,1,.71,0,.5.5,0,0,1,0,.7l-5.21,5.21a4.18,4.18,0,0,0-1.23,3V140a4.2,4.2,0,0,0,1.23,3l6.13,6.13a.5.5,0,0,1,0,.7A.51.51,0,0,1,642.39,149.94Z"/><path d="M655.81,149.94a.47.47,0,0,1-.35-.15l-6.13-6.13a5.15,5.15,0,0,1-1.52-3.67V79.58a5.19,5.19,0,0,1,1.52-3.68l5.21-5.2a.49.49,0,0,1,.7.7L650,76.61a4.14,4.14,0,0,0-1.23,3V140a4.19,4.19,0,0,0,1.22,3l6.13,6.13a.48.48,0,0,1,0,.7A.47.47,0,0,1,655.81,149.94Z"/><path d="M770.48,149.94a.5.5,0,0,1-.35-.85l6.13-6.13a4.2,4.2,0,0,0,1.23-3V79.58a4.18,4.18,0,0,0-1.23-3l-5.21-5.21a.5.5,0,0,1,0-.7.5.5,0,0,1,.71,0l5.2,5.2a5.16,5.16,0,0,1,1.53,3.68V140a5.15,5.15,0,0,1-1.52,3.67l-6.13,6.13A.51.51,0,0,1,770.48,149.94Z"/><path d="M757.07,149.94a.47.47,0,0,1-.35-.15.48.48,0,0,1,0-.7l6.13-6.13a4.19,4.19,0,0,0,1.22-3V79.58a4.14,4.14,0,0,0-1.23-3l-5.2-5.21a.49.49,0,0,1,.7-.7l5.21,5.2a5.19,5.19,0,0,1,1.52,3.68V140a5.15,5.15,0,0,1-1.52,3.67l-6.13,6.13A.47.47,0,0,1,757.07,149.94Z"/><path d="M903.77,694.77c-5.15,0-9-2.62-9-9.83v-8.8h18v8.8C912.79,692.15,909,694.77,903.77,694.77Zm0-5.41c3.09,0,4.49-1.71,4.49-4.44v-3.37h-9v3.37C899.29,687.65,900.7,689.36,903.77,689.36Z"/><path d="M903.77,695.84c5.74,0,9.62,4,9.62,10.11s-3.88,10.12-9.62,10.12-9.62-4-9.62-10.12S898,695.84,903.77,695.84Zm0,14.88a4.77,4.77,0,1,0-5-4.77A4.65,4.65,0,0,0,903.77,710.72Z"/><path d="M912.79,717.37v10c0,4.88-2.23,7.71-6.89,7.71s-6.89-2.83-6.89-7.69v-4.59h-4.25v-5.39Zm-9.3,9.53c0,1.66.8,2.71,2.41,2.71s2.4-1.05,2.4-2.71v-4.14h-4.81Z"/><path d="M912.79,736.43v15.89h-4.34v-10.5H905.6v10.11H902V741.82h-2.86v10.5h-4.35V736.43Z"/><path d="M897.35,773.42V765.3l-2.59-.9v-5.56l18,6.74v7.56l-18,6.76v-5.58Zm4-1.4,6.35-2.19v-.94l-6.35-2.19Z"/><path d="M912.79,780.86v15.85h-4.51V786.25h-3v10H901.3v-10h-6.54v-5.39Z"/><rect x="817.74" y="73.99" width="10.78" height="10.78"/><rect x="817.74" y="93.59" width="10.78" height="10.78"/><rect x="817.74" y="132.78" width="10.78" height="10.78"/><path d="M78.11,530.8h3q21.06,0,27.67,6t6.61,24.55v23.38H86.5V559.9c0-2.26-.42-3.78-1.25-4.55a5.94,5.94,0,0,0-4.11-1.16h-3A5.9,5.9,0,0,0,74,555.35c-.83.77-1.25,2.29-1.25,4.55v68.2c0,2.26.42,3.77,1.25,4.55a6,6,0,0,0,4.11,1.16h3a6,6,0,0,0,4.11-1.16c.83-.78,1.25-2.29,1.25-4.55V599.71h28.92v27q0,18.57-6.61,24.54t-27.67,6h-3q-21.07,0-27.67-6t-6.61-24.54V561.33q0-18.57,6.61-24.55T78.11,530.8Z"/><path d="M122.74,656.48v-125h37.13q20.7,0,27.13,5.81t6.43,24v14.1q0,12.5-3.39,17t-12.68,5.18q9.46,1.24,12.77,6.16t3.3,17.58v35.17H164.87V618.1q0-7.86-5.18-8.21H151.3v46.59ZM151.3,554.72v33.21h8.57a6,6,0,0,0,3.84-1c.77-.66,1.16-2.06,1.16-4.2v-23c0-2-.42-3.36-1.25-4a6.4,6.4,0,0,0-3.93-1Z"/><path d="M233.24,530.8h3.39q20.89,0,27.49,5.89t6.61,24.46v65.7q0,18.38-6.61,24.36t-27.49,6h-3.39q-20.72,0-27.4-6.07t-6.7-24.27v-65.7q0-18.57,6.61-24.46T233.24,530.8ZM233.42,634h3a7.11,7.11,0,0,0,4.38-1.07c.89-.72,1.33-2.26,1.33-4.65V559.72c0-2.38-.44-3.93-1.33-4.64a7.11,7.11,0,0,0-4.38-1.07h-3a7.09,7.09,0,0,0-4.38,1.07c-.89.71-1.34,2.26-1.34,4.64v68.55c0,2.39.45,3.93,1.34,4.65A7.09,7.09,0,0,0,233.42,634Z"/><path d="M311.61,530.8h1.61q21.06,0,27.67,6t6.6,24.55V574H318.57V559.72c0-2.26-.42-3.75-1.25-4.46a6.24,6.24,0,0,0-4.1-1.07h-1.61a6.25,6.25,0,0,0-4.11,1.07c-.83.71-1.25,2.2-1.25,4.46v7.5c0,3.93.66,6.51,2,7.76s4.64,2.83,10,4.74l10.89,3.92a69.52,69.52,0,0,1,8.13,3.31,27.22,27.22,0,0,1,5.62,4.1,14,14,0,0,1,4.11,7.14A48.4,48.4,0,0,1,348,609.35v17.32q0,18.57-6.61,24.54t-27.67,6h-2.14q-21.08,0-27.67-6t-6.61-24.54V613.81h28.92v14.46c0,2.15.42,3.6,1.25,4.38a6,6,0,0,0,4.11,1.16h2.14a6,6,0,0,0,4.11-1.16c.83-.78,1.25-2.23,1.25-4.38V616.85c0-1,0-1.79-.09-2.5a3.9,3.9,0,0,0-.63-1.88,15,15,0,0,1-.8-1.33,3.27,3.27,0,0,0-1.34-1.16c-.71-.42-1.25-.72-1.61-.9s-1.13-.5-2.32-1L309.65,607l-12.14-4.28q-5.72-2.32-8.39-3.75a31.82,31.82,0,0,1-6-4.38,15.08,15.08,0,0,1-4.56-7.41,41.76,41.76,0,0,1-1.25-11.06V561.33q0-18.57,6.61-24.55T311.61,530.8Z"/><path d="M385.7,530.8h1.6q21.07,0,27.68,6t6.6,24.55V574H392.66V559.72c0-2.26-.42-3.75-1.25-4.46a6.25,6.25,0,0,0-4.11-1.07h-1.6a6.25,6.25,0,0,0-4.11,1.07c-.83.71-1.25,2.2-1.25,4.46v7.5c0,3.93.66,6.51,2,7.76s4.64,2.83,10,4.74l10.89,3.92a69.52,69.52,0,0,1,8.13,3.31,27.49,27.49,0,0,1,5.62,4.1,14,14,0,0,1,4.11,7.14,48.4,48.4,0,0,1,1.07,11.16v17.32q0,18.57-6.61,24.54t-27.67,6H385.7q-21.07,0-27.67-6t-6.61-24.54V613.81h28.92v14.46c0,2.15.42,3.6,1.25,4.38a6,6,0,0,0,4.11,1.16h2.14a6,6,0,0,0,4.11-1.16c.83-.78,1.25-2.23,1.25-4.38V616.85c0-1,0-1.79-.09-2.5a3.9,3.9,0,0,0-.63-1.88,12.89,12.89,0,0,1-.8-1.33,3.34,3.34,0,0,0-1.34-1.16c-.71-.42-1.25-.72-1.61-.9s-1.13-.5-2.32-1L383.73,607l-12.14-4.28q-5.71-2.32-8.39-3.75a32.14,32.14,0,0,1-6-4.38,15.13,15.13,0,0,1-4.55-7.41,41.76,41.76,0,0,1-1.25-11.06V561.33q0-18.57,6.61-24.55T385.7,530.8Z"/><path d="M426,613.81V591.68h47.67v22.13Z"/><path d="M514.05,530.8h3q21.06,0,27.67,6t6.61,24.55v23.38H522.45V559.9c0-2.26-.42-3.78-1.25-4.55a5.94,5.94,0,0,0-4.11-1.16h-3a5.89,5.89,0,0,0-4.1,1.16c-.84.77-1.25,2.29-1.25,4.55v68.2c0,2.26.41,3.77,1.25,4.55a5.94,5.94,0,0,0,4.1,1.16h3a6,6,0,0,0,4.11-1.16c.83-.78,1.25-2.29,1.25-4.55V599.71h28.92v27q0,18.57-6.61,24.54t-27.67,6h-3q-21.06,0-27.67-6t-6.6-24.54V561.33q0-18.57,6.6-24.55T514.05,530.8Z"/><path d="M559.22,656.48v-125H587.6v48.92h14.29V531.51h28.38v125H601.89V605.42H587.6v51.06Z"/><path d="M697.57,531.51l17.85,125H687l-2.68-21.07H666l-2.49,21.07H634.91l17.85-125Zm-22.85,23.93-6.78,55H682.4l-7-55Z"/><path d="M720.24,656.48v-125h28.39v125Z"/><path d="M757.19,531.51h27.67L802,590.61h.18v-59.1h26.07v125h-29.1l-14.46-55h-.18v55H757.19Z"/><path d="M44,790.48v-125H81q20.72,0,27.23,5.89t6.51,24.28v64.62q0,18.39-6.51,24.28T81,790.48ZM81,688.72H72.57v78.55H81a5.92,5.92,0,0,0,4.11-1.16c.83-.77,1.25-2.23,1.25-4.37V693.9c0-2.14-.42-3.54-1.25-4.19A6.69,6.69,0,0,0,81,688.72Z"/><path d="M150.41,738.71V766.2h30.88v24.28H122v-125h59.27v24.27H150.41v24.64h27.67v24.28Z"/><path d="M187.71,790.48v-125h37.14q20.7,0,27.13,5.8t6.43,24v14.1q0,12.5-3.39,17t-12.68,5.18q9.47,1.24,12.77,6.16t3.3,17.58v35.17H229.85V752.1q0-7.86-5.18-8.21h-8.39v46.59Zm28.57-101.76v33.21h8.57a6,6,0,0,0,3.84-1c.77-.66,1.16-2.06,1.16-4.2v-23c0-2-.42-3.36-1.25-4a6.34,6.34,0,0,0-3.93-1Z"/><path d="M264.83,790.48v-125h28.39v125Z"/><path d="M382.66,665.52,363,790.48H318.21l-19.82-125H327l13.21,93.36h.53l13.57-93.36Z"/><path d="M439.78,665.52l17.85,125H429.25l-2.68-21.06H408.18l-2.5,21.06H377.12l17.85-125Zm-22.85,23.92-6.78,55h14.46l-7-55Z"/><path d="M501.91,689.79V790.48H473.34V689.79H452.28V665.52H523v24.27Z"/><path d="M527.79,790.48v-125h28.38v125Z"/><path d="M645.61,665.52,626,790.48h-44.8l-19.82-125h28.56l13.21,93.36h.54l13.57-93.36Z"/><path d="M679.35,738.71V766.2h30.88v24.28H651v-125h59.27v24.27H679.35v24.64H707v24.28Z"/><path d="M750.4,664.8H752q21.06,0,27.67,6t6.6,24.55V708H757.36V693.72c0-2.26-.42-3.75-1.25-4.46a6.24,6.24,0,0,0-4.1-1.07H750.4a6.25,6.25,0,0,0-4.11,1.07c-.83.71-1.25,2.2-1.25,4.46v7.5q0,5.89,2,7.77t10,4.73l10.89,3.92A71.35,71.35,0,0,1,776,721a27.22,27.22,0,0,1,5.62,4.1,14,14,0,0,1,4.11,7.14,48.4,48.4,0,0,1,1.07,11.16v17.32q0,18.57-6.61,24.54t-27.67,6H750.4q-21.07,0-27.67-6t-6.61-24.54V747.81H745v14.46c0,2.15.42,3.61,1.25,4.38a6,6,0,0,0,4.11,1.16h2.14a6,6,0,0,0,4.11-1.16c.83-.77,1.25-2.23,1.25-4.38V750.85c0-1,0-1.79-.09-2.5a3.86,3.86,0,0,0-.63-1.87c-.35-.54-.62-1-.8-1.34A3.34,3.34,0,0,0,755,744c-.71-.42-1.25-.72-1.61-.9s-1.13-.5-2.32-1L748.44,741l-12.14-4.28q-5.71-2.32-8.39-3.75a31.72,31.72,0,0,1-6-4.38,15.13,15.13,0,0,1-4.55-7.41,41.76,41.76,0,0,1-1.25-11.06V695.33q0-18.57,6.61-24.55T750.4,664.8Z"/><path d="M418.88,466.26v1.36h-1.95v-1.36c-4.46-.2-7.49-1.9-7.53-5.88h5.52c0,1.15.92,1.54,2,1.65v-2.62c-2.78-.46-7.29-1-7.29-5.05,0-3.1,2.83-5,7.29-5.18v-1.5h1.95v1.52c3.68.23,7,1.56,6.94,5.91h-5.38a1.64,1.64,0,0,0-1.56-1.75V456c3,.32,7.58.77,7.58,5C426.46,464.34,423.54,466,418.88,466.26Zm-1.95-10.56v-2.38c-.86.11-1.58.43-1.58,1.13C415.35,454.79,415.5,455.33,416.93,455.7Zm3.73,5.25c0-.53-.45-.84-1.78-1.16V462C420,461.94,420.66,461.62,420.66,461Z"/><path d="M427.31,457.71c0-6.09,4.28-10.14,10.68-10.14,4.64,0,9.39,2,10,8.46h-6a3.8,3.8,0,0,0-4.05-3,4.74,4.74,0,0,0,0,9.46,3.79,3.79,0,0,0,4.05-3.1h6c-.64,6.47-5.34,8.51-10,8.51C431.59,467.85,427.31,463.8,427.31,457.71Z"/><path d="M469.26,457.71c0,5.45-2.72,9.5-10.46,9.5h-9.54v-19h9.54C466.54,448.21,469.26,452.23,469.26,457.71Zm-6.29,0c0-3.06-1.72-4.25-4.17-4.25h-3.25V462h3.25C461.25,462,463,460.74,463,457.71Z"/><path d="M469.82,462.17l9.73-8.26v-.48h-9.5v-5.22H487.7v5l-9.87,8.26V462h9.73v5.22H469.82Z"/><path d="M488.93,453a3.13,3.13,0,1,1,3.13,3.08A3.14,3.14,0,0,1,488.93,453Zm0,9.64a3.13,3.13,0,1,1,3.13,3.08A3.14,3.14,0,0,1,488.93,462.64Z"/><path d="M522.65,457.71c0,5.45-2.72,9.5-10.46,9.5h-9.55v-19h9.55C519.93,448.21,522.65,452.23,522.65,457.71Zm-6.29,0c0-3.06-1.72-4.25-4.17-4.25h-3.26V462h3.26C514.64,462,516.36,460.74,516.36,457.71Z"/><path d="M524,448.21h17.13v5H530.27v2.42h10.45v4.12H530.27v2.42h10.86v5H524Z"/><path d="M542.14,457.71c0-6.09,4.28-10.14,10.68-10.14,4.64,0,9.39,2,10,8.46h-6a3.8,3.8,0,0,0-4-3,4.74,4.74,0,0,0,0,9.46,3.79,3.79,0,0,0,4-3.1h6c-.64,6.47-5.34,8.51-10,8.51C546.42,467.85,542.14,463.8,542.14,457.71Z"/><path d="M564.09,448.21h17.13v5H570.35v2.42h10.46v4.12H570.35v2.42h10.87v5H564.09Z"/><path d="M582.79,448.21H590l6.31,10.27h.57V448.21H603v19h-7l-6.47-10.27h-.57v10.27h-6.11Z"/><path d="M624.38,453.43h-6.84v13.78h-6.26V453.43h-6.84v-5.22h19.94Z"/><path d="M639.44,467.21l-2.58-4.91h-4.75v4.91h-6.27v-19h10.89c5.27,0,8.24,2.26,8.24,7.26a6.44,6.44,0,0,1-2.77,5.5l3.4,6.24Zm-7.33-9.59h4.19c1.58,0,2.4-.77,2.4-2.11s-.82-2.1-2.4-2.1h-4.19Z"/><path d="M661.27,464.7h-8.14l-.84,2.51h-6.47l7-19h8.78l7,19h-6.47Zm-1.53-4.64-2-6h-1.08l-2,6Z"/><path d="M669.48,448.21h6.27V462h10.14v5.22H669.48Z"/><path d="M687.47,448.21h6.26v19h-6.26Z"/><path d="M695,462.17l9.73-8.26v-.48H695.2v-5.22h17.65v5L703,461.51V462h9.73v5.22H695Z"/><path d="M714.09,448.21h17.13v5H720.36v2.42h10.45v4.12H720.36v2.42h10.86v5H714.09Z"/><path d="M752.8,457.71c0,5.45-2.71,9.5-10.45,9.5H732.8v-19h9.55C750.09,448.21,752.8,452.23,752.8,457.71Zm-6.29,0c0-3.06-1.72-4.25-4.16-4.25h-3.26V462h3.26C744.79,462,746.51,460.74,746.51,457.71Z"/><path d="M409.51,481.84c0-6.09,4.28-10.14,10.68-10.14,4.64,0,9.39,2,10,8.47h-6a3.8,3.8,0,0,0-4.05-3.06,4.74,4.74,0,0,0,0,9.46,3.79,3.79,0,0,0,4.05-3.1h6c-.63,6.47-5.34,8.51-10,8.51C413.79,492,409.51,487.93,409.51,481.84Z"/><path d="M445.05,491.34l-2.58-4.91h-4.75v4.91h-6.27v-19h10.89c5.27,0,8.23,2.26,8.23,7.26a6.43,6.43,0,0,1-2.76,5.5l3.4,6.24Zm-7.33-9.59h4.19c1.58,0,2.39-.77,2.39-2.1s-.81-2.11-2.39-2.11h-4.19Z"/><path d="M463.76,485.44v5.9h-6.27v-5.92l-7.76-13.08h6.59l4.07,7.15h.5l4.07-7.15h6.58Z"/><path d="M472.33,472.34h10.79c5.19,0,8.26,2.3,8.26,7.42s-3.07,7.42-8.23,7.42H478.6v4.16h-6.27ZM482.58,482c1.52,0,2.49-.75,2.49-2.22s-1-2.22-2.47-2.22h-4V482Z"/><path d="M512.11,477.56h-6.84v13.78H499V477.56h-6.83v-5.22h19.94Z"/><path d="M512.21,481.84c0-6.09,4.23-10.14,10.77-10.14s10.78,4.05,10.78,10.14S529.52,492,523,492,512.21,487.93,512.21,481.84Zm15.32,0a4.55,4.55,0,1,0-4.55,4.73A4.42,4.42,0,0,0,527.53,481.84Z"/><path d="M560.88,481.84c0,5.45-2.72,9.5-10.46,9.5h-9.54v-19h9.54C558.16,472.34,560.88,476.36,560.88,481.84Zm-6.29,0c0-3-1.72-4.25-4.17-4.25h-3.25v8.5h3.25C552.87,486.09,554.59,484.87,554.59,481.84Z"/><path d="M562.23,472.34h17.13v5H568.5v2.42H579v4.12H568.5v2.42h10.86v5H562.23Z"/><path d="M594.54,491.34,592,486.43h-4.75v4.91h-6.27v-19h10.88c5.28,0,8.24,2.26,8.24,7.26a6.43,6.43,0,0,1-2.76,5.5l3.39,6.24Zm-7.33-9.59h4.18c1.59,0,2.4-.77,2.4-2.1s-.81-2.11-2.4-2.11h-4.18Z"/><path d="M601.93,472.34h6.27v19h-6.27Z"/><path d="M609.1,472.34h6.47l4.58,13.12h.67l4.58-13.12h6.47l-7,19H616.1Z"/><path d="M643,488.83h-8.15l-.84,2.51h-6.47l7-19h8.77l7,19h-6.47Zm-1.54-4.64-2-6H638.4l-2,6Z"/><path d="M667.2,477.56h-6.83v13.78H654.1V477.56h-6.83v-5.22H667.2Z"/><path d="M668.67,472.34h6.27v19h-6.27Z"/><path d="M675.84,472.34h6.47l4.57,13.12h.68l4.57-13.12h6.47l-7,19h-8.78Z"/><path d="M699.5,472.34h17.13v5H705.77v2.42h10.45v4.12H705.77v2.42h10.86v5H699.5Z"/><path d="M717.76,485h5.63c.07,1.29,1.16,2.08,3.87,2.1,2.4,0,3.51-.66,3.51-1.54,0-.61-.34-1.24-2.2-1.51l-2.44-.39c-3.6-.59-7.92-1-7.92-5.88,0-3.76,3-6.07,9.1-6.07,5.45,0,9.25,1.52,9.14,6.95h-5.59c-.23-1.27-1.29-2.06-3.69-2.06-2.08,0-2.94.63-2.94,1.49,0,.55.34,1.2,1.79,1.43l2,.34c3.78.63,9,.75,9,5.95,0,4.14-3.21,6.2-9.73,6.18S717.6,489.92,717.76,485Z"/><path d="M409.83,226.22h18.92c0,2.69,2.37,4.3,9.3,4.36,5.77.13,7.95-1.22,7.95-2.57,0-.38.45-2.18-4-2.69l-7.12-1.09c-10.2-1.54-23.86-1.79-23.86-16.93,0-11,8.73-17.83,27.2-17.83,16.41,0,27.83,3.85,27.25,20.59H446.64c-.51-2.7-3-4.3-8.91-4.3-5,0-6.48,1.35-6.48,2.63,0,.38-.13,2.12,3,2.5l5.65.9c11,1.79,27.06,1.15,27.06,17.12,0,12.44-9.36,18.15-28.92,18C418,246.87,409.12,241.1,409.83,226.22Z"/><path d="M467,191.27h21.43l3.91,31.29h1.79l6-31.29h16.35l6,31.29h1.79l3.91-31.29h21.42l-9.36,53.87H511.74l-2.57-20.52h-1.73l-2.57,20.52H476.4Z"/><path d="M586.77,239.3H566.06l-1.8,5.84H542.52l19.11-53.87h29.5l19.11,53.87H588.5Zm-4.68-15.45L578.18,211h-3.53l-3.91,12.89Z"/><path d="M612.17,191.27h32.19c14.94,0,24.24,6.28,24.24,21.87s-9.3,21.93-24.11,21.93H633.27v10.07h-21.1Zm30.2,26.36c3,0,4.94-1.54,4.94-4.49s-2-4.43-4.81-4.43h-9.23v8.92Z"/><path d="M409.83,286.19h18.92c0,2.69,2.37,4.3,9.3,4.36,5.77.13,7.95-1.22,7.95-2.56,0-.39.45-2.18-4-2.7l-7.12-1.09c-10.2-1.54-23.86-1.79-23.86-16.93,0-11,8.73-17.83,27.2-17.83,16.41,0,27.83,3.85,27.25,20.59H446.64c-.51-2.7-3-4.3-8.91-4.3-5,0-6.48,1.35-6.48,2.63,0,.39-.13,2.12,3,2.5l5.65.9c11,1.8,27.06,1.15,27.06,17.12,0,12.45-9.36,18.15-28.92,18C418,306.84,409.12,301.07,409.83,286.19Z"/><path d="M526.87,268.75H508v36.36H487V268.75H468.12V251.24h58.75Z"/><path d="M561.82,299.27H541.11l-1.8,5.84H517.57l19.11-53.87h29.5l19.11,53.87H563.55Zm-4.68-15.45-3.91-12.89H549.7l-3.91,12.89Z"/><path d="M627.88,305.11,615.5,287.92h-1.15l-6.1,6.61v10.58h-21V251.24h21v18.34h1.29l16-18.34h23.28l-21.55,24,21.93,29.89Z"/><path d="M650.32,251.24H701V268H671.42v3.59h28.41v13.27H671.42v3.53H701v16.74H650.32Z"/><path d="M453.44,359.24H432.72l-1.79,5.84H409.19l19.11-53.87h29.5l19.11,53.87H455.17Zm-4.68-15.45-3.91-12.89h-3.53l-3.91,12.89Z"/><path d="M478.83,311.21H503l13.15,24.37H518V311.21h20.52v53.87H514.94l-13.66-24.37h-1.92v24.37H478.83Z"/><path d="M601.07,338.14c0,15.52-7.5,26.94-30.14,26.94H542.32V311.21h28.61C593.57,311.21,601.07,322.5,601.07,338.14Zm-21.16,0c0-7.5-4.37-9.36-8.92-9.36h-7.5v18.66H571C575.54,347.44,579.91,345.52,579.91,338.14Z"/><path d="M411.11,371.18h50.67v16.74H432.21v3.59h28.41v13.27H432.21v3.53h29.57v16.74H411.11Z"/><path d="M507,419.21H486.27l-1.79,5.84H462.74l19.11-53.87h29.5l19.11,53.87H508.72Zm-4.68-15.45-3.91-12.89h-3.53L491,403.76Z"/><path d="M570.61,425.05l-6.29-12.51H553.48v12.51h-21.1V371.18H565c15.27,0,24.18,6.16,24.18,21.42,0,7-2.95,12-7,15.2l9.11,17.25ZM553.48,397h9.88c3.21,0,4.62-1.67,4.62-4.17s-1.41-4.17-4.62-4.17h-9.88Z"/><path d="M594.27,371.18h24.12l13.14,24.37h1.86V371.18h20.53v53.87H630.38l-13.66-24.37h-1.93v24.37H594.27Z"/><path d="M71.42,490.29a12.87,12.87,0,1,1,12.86-12.86A12.88,12.88,0,0,1,71.42,490.29Zm0-24.73a11.87,11.87,0,1,0,11.86,11.87A11.89,11.89,0,0,0,71.42,465.56Z"/><rect x="70.92" y="447.32" width="1" height="60.21"/><rect x="41.31" y="476.93" width="60.21" height="1"/><g id="DicLNM.tif" class="cls-6"><path class="cls-7" d="M861.83,458.18H691.05V287.39H861.83ZM814.82,314l-.24-1.09c-6.77,1.69-13.86,2.58-20.25,5.19-29,11.81-53.1,30.36-73.33,54.09A59.63,59.63,0,0,0,708,397c-1.63,6.65-1.25,12.59,3.49,18,3,3.39,5.6,7.11,8.24,10.78a14.77,14.77,0,0,0,9.66,6c8.33,1.6,16.31-.15,24.05-2.9,30.11-10.73,54.81-29.23,75.45-53.36,6.64-7.78,12.27-16.24,15.16-26.24,1.91-6.58,1.35-12.62-3.45-18a52.26,52.26,0,0,1-5.92-7.81C830.12,315.93,823.31,313.3,814.82,314Z"/><path d="M814.82,314c8.49-.74,15.3,1.89,19.87,9.47a52.26,52.26,0,0,0,5.92,7.81c4.8,5.35,5.36,11.39,3.45,18-2.89,10-8.52,18.46-15.16,26.24-20.64,24.13-45.34,42.63-75.45,53.36-7.74,2.75-15.72,4.5-24.05,2.9a14.77,14.77,0,0,1-9.66-6c-2.64-3.67-5.26-7.39-8.24-10.78-4.74-5.4-5.12-11.34-3.49-18a59.63,59.63,0,0,1,13-24.8c20.23-23.73,44.37-42.28,73.33-54.09,6.39-2.61,13.48-3.5,20.25-5.19Zm-86.41,91.08c3.2-1.11,9.38-2.76,15.14-5.36a181.7,181.7,0,0,0,67.61-52A58.2,58.2,0,0,0,820,331.35c2.14-5.86-1.9-9.85-8.14-8.82a64,64,0,0,0-10.58,2.64c-24,8.33-44.17,22.74-62.19,40.33-8.5,8.3-16.07,17.4-21.13,28.29C714.74,400.72,717.67,405.17,728.41,405.12Zm71.25-11.31c.17-4.28-6.17-13.51-8.87-13.56ZM819,352.35l-1,.85c2.19,4.28,5.85,7.33,8.93,10.87l.9-.74ZM796.41,376.1l-.86.67,8.89,11.69,1.13-.88Zm25.46-5.25,1.22-1-8.94-10.36-.61.5Zm-9.45,9.32.58-.42-8.06-11.66-1.07.77ZM757,403.53l-.93.57,7.37,11.55.87-.57Q760.69,409.31,757,403.53Zm74.86-47.79.84-.66-8-10.24-.75.6Zm-105,57.82-.74.51,6.26,10,1-.68Zm56.85-27.09-1,.85,7,9,.63-.5Q787,391.16,783.74,386.47Zm-6,16.75.72-.55L772.53,394l-1.06.77Z"/><path class="cls-7" d="M728.41,405.12c-10.74.05-13.67-4.4-10.45-11.33,5.06-10.89,12.63-20,21.13-28.29,18-17.59,38.16-32,62.19-40.33a64,64,0,0,1,10.58-2.64c6.24-1,10.28,3,8.14,8.82a58.2,58.2,0,0,1-8.84,16.43,181.7,181.7,0,0,1-67.61,52C737.79,402.36,731.61,404,728.41,405.12Zm15-10.6v-1.06a5.86,5.86,0,0,0-1-.33c-5.86-.59-7-2.6-4.43-7.89a39.08,39.08,0,0,1,2.19-4c6.43-10,14.94-18,24.38-25s19.45-13.06,30.79-16.42a11.49,11.49,0,0,1,7.83.58c1.38.71,1.44,3.94,2.19,6.33a53.81,53.81,0,0,0,2.31-5.72c1.58-5.6-1.68-9-7.25-7.63-2.44.59-4.87,1.24-7.24,2.05-16.73,5.72-30.87,15.61-43.68,27.53-7.5,7-14.12,14.67-18.53,24.06-1.62,3.45-.62,7,2.69,7.52S740.17,394.58,743.44,394.52Z"/><path class="cls-7" d="M799.66,393.81l-8.87-13.56C793.49,380.3,799.83,389.53,799.66,393.81Z"/><path class="cls-7" d="M819,352.35l8.79,11-.9.74c-3.08-3.54-6.74-6.59-8.93-10.87Z"/><path class="cls-7" d="M796.41,376.1l9.16,11.48-1.13.88-8.89-11.69Z"/><path class="cls-7" d="M821.87,370.85,813.54,360l.61-.5,8.94,10.36Z"/><path class="cls-7" d="M812.42,380.17l-8.55-11.31,1.07-.77L813,379.75Z"/><path class="cls-7" d="M757,403.53q3.65,5.78,7.31,11.55l-.87.57-7.37-11.55Z"/><path class="cls-7" d="M831.9,355.74,824,345.44l.75-.6,8,10.24Z"/><path class="cls-7" d="M726.89,413.56l6.51,9.86-1,.68-6.26-10Z"/><path class="cls-7" d="M783.74,386.47q3.3,4.68,6.61,9.35l-.63.5-7-9Z"/><path class="cls-7" d="M777.73,403.22l-6.26-8.43,1.06-.77,5.92,8.65Z"/><path d="M743.44,394.52c-3.27.06-6.61.57-9.79.06s-4.31-4.07-2.69-7.52c4.41-9.39,11-17.09,18.53-24.06,12.81-11.92,27-21.81,43.68-27.53,2.37-.81,4.8-1.46,7.24-2.05,5.57-1.36,8.83,2,7.25,7.63a53.81,53.81,0,0,1-2.31,5.72c-.75-2.39-.81-5.62-2.19-6.33a11.49,11.49,0,0,0-7.83-.58c-11.34,3.36-21.37,9.4-30.79,16.42s-17.95,15-24.38,25a39.08,39.08,0,0,0-2.19,4c-2.57,5.29-1.43,7.3,4.43,7.89a5.86,5.86,0,0,1,1,.33Z"/></g><g id="DicLNM.tif-2" data-name="DicLNM.tif" class="cls-6"><path class="cls-7" d="M755.34,325.57h96.45V229.12H755.34Zm26.55-81.4.14-.62c3.82,1,7.82,1.46,11.43,2.94,16.35,6.67,30,17.14,41.41,30.54a33.6,33.6,0,0,1,7.34,14c.92,3.76.7,7.11-2,10.16-1.68,1.92-3.16,4-4.66,6.09a8.38,8.38,0,0,1-5.45,3.39c-4.7.9-9.21-.09-13.58-1.64-17-6.06-31-16.51-42.61-30.14-3.75-4.39-6.93-9.17-8.56-14.81-1.08-3.72-.76-7.13,2-10.15a29.72,29.72,0,0,0,3.34-4.41C773.25,245.24,777.09,243.75,781.89,244.17Z"/><path d="M781.89,244.17c-4.8-.42-8.64,1.07-11.22,5.35a29.72,29.72,0,0,1-3.34,4.41c-2.71,3-3,6.43-2,10.15,1.63,5.64,4.81,10.42,8.56,14.81,11.65,13.63,25.6,24.08,42.61,30.14,4.37,1.55,8.88,2.54,13.58,1.64a8.38,8.38,0,0,0,5.45-3.39c1.5-2.07,3-4.17,4.66-6.09,2.67-3.05,2.89-6.4,2-10.16a33.6,33.6,0,0,0-7.34-14c-11.42-13.4-25.06-23.87-41.41-30.54-3.61-1.48-7.61-2-11.43-2.94Zm48.8,51.43a88.85,88.85,0,0,1-8.55-3A102.61,102.61,0,0,1,784,263.22a32.93,32.93,0,0,1-5-9.27c-1.21-3.31,1.07-5.57,4.59-5a37.11,37.11,0,0,1,6,1.5c13.57,4.7,24.94,12.84,35.12,22.77,4.8,4.69,9.07,9.82,11.93,16C838.41,293.12,836.75,295.63,830.69,295.6Zm-40.23-6.38c-.11-2.42,3.48-7.63,5-7.66ZM779.54,265.8l.58.49c-1.23,2.41-3.3,4.14-5,6.13l-.51-.41Zm12.75,13.41.49.39-5,6.6-.63-.5Zm-14.38-3-.69-.56,5-5.86.35.29Zm5.34,5.26-.33-.23,4.55-6.59.6.44Zm31.27,13.19.53.33-4.17,6.52-.49-.32Zm-42.27-27-.48-.38,4.49-5.78.42.34Zm59.3,32.65.42.29-3.54,5.66-.56-.38Zm-32.1-15.3.54.48c-1.31,1.7-2.62,3.39-3.92,5.09l-.36-.29Zm3.39,9.46-.41-.31,3.34-4.88.6.43C805.19,291.36,804,292.94,802.84,294.53Z"/><path class="cls-7" d="M830.69,295.6c6.06,0,7.72-2.48,5.9-6.39-2.86-6.16-7.13-11.29-11.93-16-10.18-9.93-21.55-18.07-35.12-22.77a37.11,37.11,0,0,0-6-1.5c-3.52-.58-5.8,1.68-4.59,5a32.93,32.93,0,0,0,5,9.27,102.61,102.61,0,0,0,38.18,29.36A88.85,88.85,0,0,0,830.69,295.6Zm-8.49-6V289a2.46,2.46,0,0,1,.58-.19c3.31-.33,4-1.46,2.5-4.45a21.24,21.24,0,0,0-1.24-2.24A54.82,54.82,0,0,0,810.29,268c-5.33-4-11-7.37-17.39-9.27a6.48,6.48,0,0,0-4.43.33c-.77.4-.81,2.22-1.23,3.58a32.73,32.73,0,0,1-1.31-3.24c-.89-3.16,1-5.07,4.1-4.31,1.38.34,2.75.71,4.09,1.16,9.45,3.23,17.43,8.82,24.67,15.55a44.64,44.64,0,0,1,10.46,13.58c.91,2,.35,4-1.52,4.25A31.94,31.94,0,0,1,822.2,289.62Z"/><path class="cls-7" d="M790.46,289.22l5-7.66C793.94,281.59,790.35,286.8,790.46,289.22Z"/><path class="cls-7" d="M779.54,265.8l-5,6.21.51.41c1.74-2,3.81-3.72,5-6.13Z"/><path class="cls-7" d="M792.29,279.21l-5.17,6.49.63.5,5-6.6Z"/><path class="cls-7" d="M777.91,276.25l4.71-6.13-.35-.29-5,5.86Z"/><path class="cls-7" d="M783.25,281.51l4.82-6.38-.6-.44-4.55,6.59Z"/><path class="cls-7" d="M814.52,294.7l-4.13,6.53.49.32,4.17-6.52Z"/><path class="cls-7" d="M772.25,267.72l4.43-5.82-.42-.34-4.49,5.78Z"/><path class="cls-7" d="M831.55,300.37l-3.68,5.57.56.38,3.54-5.66Z"/><path class="cls-7" d="M799.45,285.07l-3.74,5.28.36.29c1.3-1.7,2.61-3.39,3.92-5.09Z"/><path class="cls-7" d="M802.84,294.53c1.17-1.59,2.35-3.17,3.53-4.76l-.6-.43-3.34,4.88Z"/><path d="M822.2,289.62a31.94,31.94,0,0,0,5.53,0c1.87-.3,2.43-2.3,1.52-4.25a44.64,44.64,0,0,0-10.46-13.58c-7.24-6.73-15.22-12.32-24.67-15.55-1.34-.45-2.71-.82-4.09-1.16-3.15-.76-5,1.15-4.1,4.31a32.73,32.73,0,0,0,1.31,3.24c.42-1.36.46-3.18,1.23-3.58a6.48,6.48,0,0,1,4.43-.33c6.4,1.9,12.06,5.31,17.39,9.27a54.82,54.82,0,0,1,13.76,14.12,21.24,21.24,0,0,1,1.24,2.24c1.45,3,.81,4.12-2.5,4.45a2.46,2.46,0,0,0-.58.19Z"/></g><rect x="373.62" y="163.16" width="1" height="341"/><ellipse cx="789.5" cy="431.05" rx="58.27" ry="3.01"/><path d="M192.87,490H136.38V468.19h56.49Zm-55.49-1h54.49V469.19H137.38Z"/><rect x="192.37" y="478.59" width="52.03" height="1"/><path d="M254.26,488.84a9.75,9.75,0,1,1,9.75-9.75A9.76,9.76,0,0,1,254.26,488.84Zm0-18.5a8.75,8.75,0,1,0,8.75,8.75A8.77,8.77,0,0,0,254.26,470.34Z"/><rect x="244.98" y="478.58" width="18.49" height="1" transform="translate(-287.75 499.32) rotate(-64.19)"/><rect class="cls-2" x="136.88" y="468.69" width="13.51" height="20.81"/><path d="M150.89,490H136.38V468.19h14.51Zm-13.51-1h12.51V469.19H137.38Z"/><rect x="150.39" y="468.69" width="23.44" height="20.81"/><path d="M174.33,490H149.89V468.19h24.44Zm-23.44-1h22.44V469.19H150.89Z"/><rect class="cls-7" x="42.31" y="195.83" width="293.36" height="175.7"/><path d="M337,372.84H41V194.51H337ZM43.62,370.21H334.36V197.14H43.62Z"/><rect x="42.31" y="195.83" width="293.36" height="119.75"/><path class="cls-7" d="M53.18,255.36c0-29.68,20.86-49.43,52.08-49.43,22.62,0,45.79,9.93,48.88,41.26H125c-2.54-10.15-9.71-14.89-19.75-14.89-12.14,0-21.73,9-21.73,23.06s9.59,23.06,21.73,23.06c10,0,17.21-4.75,19.75-15.12h29.13c-3.09,31.56-26,41.49-48.88,41.49C74,304.79,53.18,285,53.18,255.36Z"/><path class="cls-7" d="M260.39,255.36c0,26.59-13.24,46.34-51,46.34H162.85V209h46.56C247.15,209,260.39,228.66,260.39,255.36Zm-30.68,0c0-14.9-8.38-20.74-20.3-20.74H193.53V276.1h15.88C221.33,276.1,229.71,270.14,229.71,255.36Z"/><path class="cls-7" d="M267.22,285.76,298,259.68v-1.5h-30V241.67h55.74v15.94l-31.15,26.08v1.5h30.72V301.7h-56Z"/><path d="M52.44,328.16H80.67v8.27H62.77v4H80v6.79H62.77v4h17.9v8.28H52.44Z"/><path d="M92.82,343.85v-.52L82.23,328.16H93.34l5.48,8.39h1l5.49-8.39h11.11l-10.52,15.17v.52l10.78,15.63H105.42l-5.63-8.8h-1l-5.63,8.8H82Z"/><path d="M114.41,343.82c0-10,7-16.71,17.6-16.71,7.65,0,15.48,3.36,16.52,13.95h-9.84c-.86-3.43-3.28-5-6.68-5-4.1,0-7.34,3.06-7.34,7.8s3.24,7.79,7.34,7.79c3.4,0,5.82-1.6,6.68-5.11h9.84c-1,10.67-8.8,14-16.52,14C121.46,360.52,114.41,353.85,114.41,343.82Z"/><path d="M183.4,328.16v31.32H173.07V348.14H160.91v11.34H150.58V328.16h10.33v11.33h12.16V328.16Z"/><path d="M210.36,355.34H196.93l-1.38,4.14H184.89l11.52-31.32h14.47l11.52,31.32H211.74Zm-2.54-7.65-3.28-9.84h-1.79l-3.28,9.84Z"/><path d="M223.89,328.16h11.86l10.4,16.92h.94V328.16h10.06v31.32H245.56l-10.67-16.93H234v16.93H223.89Z"/><path d="M293.47,359.48H288l-.14-4.14c-2.17,3-6.08,5.18-11.6,5.18-9.62,0-17-6.67-17-16.7s7-16.71,17.9-16.71c7.42,0,15,3.58,16.22,12H283.07c-.63-1.57-2.68-3.1-5.74-3.1-4.63,0-7.87,3.06-7.87,7.8a7.39,7.39,0,0,0,7.57,7.79c1.53,0,5.44-.41,6.49-4.06h-6.9v-5.37h16.85Z"/><path d="M296.27,328.16H324.5v8.27H306.6v4h17.23v6.79H306.6v4h17.9v8.28H296.27Z"/><rect class="cls-7" x="267.77" y="210.45" width="54.87" height="15.76"/><rect x="42.31" y="314.26" width="293.36" height="2.63"/><rect class="cls-8" x="40.77" y="393.63" width="245.46" height="42.69" rx="21.34"/><path d="M264.88,436.82H62.11a21.85,21.85,0,0,1,0-43.69H264.88a21.85,21.85,0,0,1,0,43.69ZM62.11,394.13a20.85,20.85,0,0,0,0,41.69H264.88a20.85,20.85,0,0,0,0-41.69Z"/><rect class="cls-9" x="38.1" y="393.63" width="81.37" height="42.69" rx="21.34"/><path d="M98.13,436.82H59.44a21.85,21.85,0,0,1,0-43.69H98.13a21.85,21.85,0,0,1,0,43.69ZM59.44,394.13a20.85,20.85,0,0,0,0,41.69H98.13a20.85,20.85,0,0,0,0-41.69Z"/></g></g></g></svg>