<svg width="320" height="76" viewBox="0 0 320 76" fill="none" xmlns="http://www.w3.org/2000/svg">
<path fill-rule="evenodd" clip-rule="evenodd" d="M65.9721 11.6675L66.3734 14.0852C66.6898 16.3343 66.8364 18.6039 66.812 20.8749C66.8093 25.8934 66.2016 30.8935 65.002 35.7677C63.3796 42.3896 60.5538 48.6595 56.6644 54.2672C52.1701 60.7073 45.6717 67.0416 36.1993 72.1312L35.0405 72.7535L33.8817 72.1312C24.4093 67.0416 17.9136 60.7073 13.4166 54.2672C9.52731 48.6595 6.70153 42.3896 5.07906 35.7677C3.87965 30.8944 3.27198 25.8952 3.26909 20.8775C3.24461 18.6065 3.3912 16.3369 3.70763 14.0878L4.10896 11.6701C4.14322 11.4729 4.13798 11.271 4.09353 11.0758C4.04909 10.8807 3.96633 10.6962 3.85001 10.5331C3.73369 10.37 3.58613 10.2314 3.41581 10.1254C3.24549 10.0193 3.0558 9.94789 2.85766 9.91522C2.65951 9.88255 2.45684 9.88927 2.26131 9.93499C2.06579 9.98072 1.88128 10.0645 1.71842 10.1816C1.55556 10.2987 1.41757 10.4468 1.3124 10.6173C1.20723 10.7877 1.13696 10.9773 1.10564 11.1749L0.704311 13.5926C0.359113 16.0053 0.198296 18.4406 0.223248 20.8775C0.225161 26.1424 0.86229 31.3879 2.12092 36.5012C3.83422 43.484 6.81677 50.095 10.9209 56.007C15.6651 62.8099 22.5462 69.499 32.4492 74.8084L34.3309 75.8173C34.5525 75.9367 34.8005 75.9992 35.0525 75.9992C35.3044 75.9992 35.5524 75.9367 35.7741 75.8173L37.6531 74.8084C47.5455 69.4963 54.4292 62.8099 59.1814 56.007C63.2834 50.0954 66.2642 43.4853 67.9761 36.5039C69.2347 31.3905 69.8719 26.145 69.8737 20.8802C69.8986 18.4432 69.7378 16.0079 69.3927 13.5953L68.9913 11.1776C68.96 10.9799 68.8898 10.7904 68.7846 10.6199C68.6794 10.4494 68.5414 10.3014 68.3786 10.1843C68.2157 10.0672 68.0312 9.98337 67.8357 9.93764C67.6402 9.89192 67.4375 9.88519 67.2393 9.91786C67.0412 9.95053 66.8515 10.022 66.6812 10.128C66.5109 10.234 66.3633 10.3726 66.247 10.5358C66.1307 10.6989 66.0479 10.8833 66.0035 11.0785C65.959 11.2736 65.9538 11.4756 65.988 11.6728L65.9721 11.6675Z" fill="black"/>
<path fill-rule="evenodd" clip-rule="evenodd" d="M12.4252 10.0203L35.0432 3.13533L58.1661 10.1686C58.5532 10.284 58.9704 10.2418 59.3264 10.0513C59.6824 9.86091 59.9481 9.53773 60.0655 9.15254C60.1829 8.76734 60.1424 8.35149 59.9528 7.99601C59.7631 7.64052 59.4399 7.37435 59.0538 7.25575L35.487 0.0873848C35.1978 -0.000930017 34.8886 -0.000930017 34.5993 0.0873848L11.5349 7.10216C11.3421 7.15957 11.1627 7.25435 11.0068 7.38105C10.8509 7.50774 10.7217 7.66387 10.6265 7.84046C10.5313 8.01705 10.4721 8.21063 10.4522 8.41008C10.4324 8.60954 10.4522 8.81094 10.5107 9.00273C10.5691 9.19452 10.665 9.37292 10.7928 9.52769C10.9207 9.68245 11.0779 9.81054 11.2556 9.9046C11.4332 9.99866 11.6277 10.0568 11.828 10.0758C12.0283 10.0947 12.2303 10.0741 12.4226 10.015L12.4252 10.0203Z" fill="black"/>
<path fill-rule="evenodd" clip-rule="evenodd" d="M1.25713 12.1123L33.6824 75.1685C33.8088 75.415 34.0005 75.6222 34.2368 75.7677C34.4731 75.9132 34.7449 75.9915 35.0226 75.9939C35.3004 75.9964 35.5735 75.923 35.8124 75.7816C36.0512 75.6403 36.2466 75.4365 36.3774 75.1923L56.1515 38.3443L56.1807 38.286L68.8372 12.07C69.0088 11.7082 69.03 11.2936 68.8964 10.9162C68.7628 10.5389 68.4852 10.2293 68.1237 10.0549C67.7623 9.88041 67.3464 9.85513 66.9664 9.98454C66.5864 10.1139 66.273 10.3876 66.0943 10.7459L53.4591 36.9408L35.083 71.207L3.96543 10.7248C3.87575 10.5452 3.7512 10.3851 3.59898 10.2538C3.44676 10.1226 3.26992 10.0227 3.07868 9.96C2.88745 9.89731 2.68563 9.87306 2.48492 9.88865C2.28421 9.90423 2.0886 9.95935 1.90942 10.0508C1.73024 10.1423 1.57106 10.2682 1.4411 10.4214C1.31113 10.5746 1.21297 10.752 1.1523 10.9432C1.09163 11.1345 1.06965 11.3358 1.08765 11.5356C1.10564 11.7354 1.16325 11.9296 1.25713 12.1071V12.1123Z" fill="black"/>
<path fill-rule="evenodd" clip-rule="evenodd" d="M16.7787 40.1953H52.8372C53.2407 40.1953 53.6278 40.0355 53.9131 39.7512C54.1985 39.4669 54.3588 39.0813 54.3588 38.6792C54.3588 38.2772 54.1985 37.8916 53.9131 37.6072C53.6278 37.3229 53.2407 37.1632 52.8372 37.1632H16.7787C16.3752 37.1632 15.9881 37.3229 15.7028 37.6072C15.4174 37.8916 15.2571 38.2772 15.2571 38.6792C15.2571 39.0813 15.4174 39.4669 15.7028 39.7512C15.9881 40.0355 16.3752 40.1953 16.7787 40.1953ZM117.355 27.1137H93.8977C93.4923 27.1158 93.1041 27.2772 92.8175 27.5628C92.5308 27.8484 92.3689 28.2351 92.3668 28.639V47.3981C92.3695 47.8017 92.5317 48.1881 92.8182 48.4735C93.1047 48.759 93.4925 48.9206 93.8977 48.9233H117.355V52.101H93.8977C93.2787 52.1039 92.6654 51.9845 92.093 51.7498C91.5207 51.5151 91.0007 51.1697 90.563 50.7337C90.1254 50.2977 89.7788 49.7796 89.5432 49.2093C89.3077 48.639 89.1879 48.0279 89.1907 47.4113V28.6523C89.1879 28.0356 89.3077 27.4245 89.5432 26.8543C89.7788 26.284 90.1254 25.7659 90.563 25.3299C91.0007 24.8938 91.5207 24.5485 92.093 24.3138C92.6654 24.0791 93.2787 23.9597 93.8977 23.9625H117.355V27.1137ZM161.403 23.9466V27.1243H138.812V36.4112H156.97V39.6153H138.809V48.9181H161.401V52.0958H135.62V23.9466H161.403Z" fill="black"/>
<path d="M207.923 28.6761V36.9222C207.925 37.5388 207.805 38.1497 207.57 38.7198C207.334 39.2899 206.987 39.8079 206.55 40.2438C206.112 40.6798 205.592 41.0252 205.02 41.26C204.448 41.4948 203.835 41.6144 203.216 41.612H198.902L207.766 52.0851H203.569L194.743 41.612H184.377C183.865 41.586 183.354 41.5338 182.846 41.4557V52.0851H179.657V23.9863H203.192C203.811 23.9839 204.424 24.1035 204.996 24.3383C205.568 24.5731 206.088 24.9185 206.526 25.3545C206.963 25.7904 207.31 26.3084 207.546 26.8785C207.781 27.4486 207.901 28.0595 207.899 28.6761H207.923ZM184.388 38.4078H203.216C203.412 38.4103 203.607 38.3736 203.789 38.2998C203.972 38.226 204.137 38.1167 204.276 37.9782C204.415 37.8398 204.525 37.675 204.599 37.4937C204.673 37.3123 204.709 37.118 204.707 36.9222V28.6761C204.71 28.4774 204.674 28.2801 204.6 28.0956C204.526 27.9111 204.416 27.743 204.276 27.601C204.141 27.4556 203.976 27.3404 203.793 27.2628C203.61 27.1852 203.412 27.147 203.213 27.1508H184.385C183.98 27.1529 183.592 27.3143 183.305 27.5998C183.019 27.8854 182.857 28.2722 182.854 28.6761V36.9222C182.85 37.1206 182.889 37.3175 182.966 37.5001C183.044 37.6827 183.16 37.8467 183.306 37.9815C183.449 38.1206 183.618 38.23 183.804 38.3032C183.99 38.3764 184.188 38.412 184.388 38.4078Z" fill="black"/>
<path fill-rule="evenodd" clip-rule="evenodd" d="M224.792 23.9466H253.023V27.1243H240.532V52.0984H237.342V27.1243H224.792V23.9466ZM270.134 52.0852V23.9466H273.324V52.0852H270.134ZM315.713 23.9466H319.793L307.987 38.0159L319.833 52.0852H315.713L305.201 39.618H296.101V52.0852H292.89V23.9466H296.106V36.4112H305.207L315.713 23.9466Z" fill="black"/>
</svg>
