<svg width="27" height="14" viewBox="0 0 27 14" fill="none" xmlns="http://www.w3.org/2000/svg">
<g clip-path="url(#clip0)">
<path d="M11.51 2.55965V9.55965H9.76V8.85965H6.6V13.2296H4.83V8.84965H1.68V9.61965H0V2.55965H4.83V0.139648H6.6V2.55965H11.51ZM4.83 7.20965V4.20965H1.68V7.20965H4.83ZM9.76 7.20965V4.20965H6.6V7.20965H9.76Z" fill="white"/>
<path d="M23.9999 4.12C23.3792 5.96034 22.4004 7.65965 21.1199 9.12C22.6859 10.3045 24.491 11.1337 26.4099 11.55C25.9717 12.0165 25.5953 12.5375 25.2899 13.1C23.284 12.6006 21.4129 11.6651 19.8099 10.36C18.1357 11.6826 16.2048 12.6429 14.1399 13.18C13.8659 12.6274 13.5305 12.1074 13.1399 11.63C15.1106 11.1955 16.9677 10.3504 18.5899 9.15C17.2863 7.68542 16.2687 5.98948 15.5899 4.15H13.3999V2.49H19.3099C19.1156 1.7981 18.8508 1.12793 18.5199 0.49L20.2999 0C20.7047 0.670663 21.0398 1.38104 21.2999 2.12L20.0899 2.49H26.1799V4.12H23.9999ZM17.3199 4.12C17.9003 5.56455 18.7562 6.88237 19.8399 8C20.8548 6.87441 21.6305 5.55439 22.1199 4.12H17.3199Z" fill="white"/>
</g>
<defs>
<clipPath id="clip0">
<rect width="26.41" height="13.22" fill="white"/>
</clipPath>
</defs>
</svg>
