<svg width="58" height="56" viewBox="0 0 58 56" fill="none" xmlns="http://www.w3.org/2000/svg">
<path fill-rule="evenodd" clip-rule="evenodd" d="M35.4 54.4192C34.2 55.0192 32.9 55.0192 31.7 55.1192C29.6 55.4192 27.4 55.3192 25.3 55.1192C22.6 54.8192 19.9 54.1192 17.3 53.2192C14.1 52.1192 11.2 50.4192 8.4 48.6192C7.4 47.9192 6.5 47.1192 5.6 46.3192C3.6 44.6192 1.9 42.6192 0.399998 40.5192C0.199998 40.2192 0 39.9192 0 39.6192C2.4 34.2192 3.3 28.5192 3.8 22.7192C4 20.0192 4.1 17.3192 4.6 14.6192C5.1 11.5192 6.3 8.71916 8.5 6.31916C10.5 4.21916 13 2.81916 15.7 1.81916C17.9 0.919163 20.2 0.11916 22.7 0.01916C25 -0.08084 27.2 0.219165 29.4 0.719165C32.7 1.51916 36 2.51916 39.1 4.01916C41.6 5.01916 44.2 6.01916 46.8 6.81916C49.5 7.61916 52.2 8.51916 54.5 10.2192C57.4 12.4192 58.2 15.2192 56.9 18.6192C56.1 20.7192 54.6 22.3192 53.1 23.9192C50.4 26.7192 47.5 29.3192 44.9 32.2192C41.9 35.7192 39.2 39.3192 37.3 43.5192C35.7 47.0192 34.8 50.6192 35.4 54.4192ZM54.7 21.5192C54.6 21.5192 54.5 21.5192 54.4 21.6192C54.3 21.6192 54.2 21.7192 54.2 21.8192C54.2 21.8192 54.2 21.8192 54.2 21.9192C54.3 21.9192 54.4 21.8192 54.4 21.7192L54.7 21.5192C54.9 21.5192 54.8 21.5192 54.7 21.5192C54.7 21.5192 54.8 21.4192 54.7 21.5192ZM24.1 4.11917C20.3 4.11917 17.2 7.21916 17.2 10.9192C17.2 14.7192 20.3 17.7192 24 17.8192C27.8 17.8192 30.8 14.7192 30.9 10.9192C30.9 7.11916 27.9 4.11917 24.1 4.11917ZM29.7 25.1192C30.3 26.0192 31.4 26.8192 32.7 27.2192C35.3 28.1192 37.9 28.1192 40.5 27.6192C45.1 26.7192 49.4 25.1192 53.3 22.5192C53.5 22.3192 53.9 22.3192 54 21.9192C53.8 21.8192 53.7 21.9192 53.6 22.0192C52.3 22.8192 50.9 23.4192 49.5 24.0192C45.9 25.5192 42.1 26.5192 38.1 26.7192C35.2 26.9192 32.3 26.7192 29.7 25.1192ZM48.6 19.2192C49.4 19.2192 50.1 18.5192 50.1 17.6192C50.1 16.8192 49.4 16.1192 48.5 16.2192C47.7 16.2192 47.1 16.9192 47.1 17.7192C47.1 18.6192 47.7 19.2192 48.6 19.2192Z" fill="white"/>
<path fill-rule="evenodd" clip-rule="evenodd" d="M24.1 4.11914C27.9 4.11914 30.9 7.21914 30.9 10.9191C30.9 14.7191 27.8 17.7191 24 17.8191C20.2 17.8191 17.2 14.7191 17.2 10.9191C17.2 7.11914 20.3 4.11914 24.1 4.11914ZM28.9 11.0191C28.9 8.31913 26.8 6.21914 24.1 6.21914C21.4 6.21914 19.3 8.31913 19.3 11.0191C19.3 13.6191 21.4 15.8191 24 15.8191H24.1C26.7 15.8191 28.8 13.7191 28.9 11.0191Z" fill="#FCFDFB"/>
<path fill-rule="evenodd" clip-rule="evenodd" d="M29.7 25.1191C32.3 26.7191 35.2 26.9191 38.1 26.8191C42.1 26.6191 45.9 25.7191 49.5 24.1191C50.9 23.5191 52.3 22.9191 53.6 22.1191C53.7 22.0191 53.8 21.9191 54 22.0191C53.9 22.3191 53.6 22.4191 53.3 22.6191C49.4 25.2191 45.1 26.8191 40.5 27.7191C37.9 28.2191 35.2 28.2191 32.7 27.3191C31.4 26.8191 30.2 26.0191 29.7 25.1191ZM29.3 0.719058C31.4 0.119058 33.6 -0.0809419 35.7 0.719058C37.3 1.31906 38.5 2.41906 39 4.11906C36 2.51906 32.7 1.51906 29.3 0.719058Z" fill="#C2CDFF"/>
<path fill-rule="evenodd" clip-rule="evenodd" d="M48.6 19.2191C47.8 19.2191 47.1 18.5191 47.1 17.7191C47.1 16.9191 47.7 16.2191 48.5 16.2191C49.3 16.2191 50 16.8191 50.1 17.6191C50 18.5191 49.4 19.2191 48.6 19.2191Z" fill="#FCFDFB"/>
<path fill-rule="evenodd" clip-rule="evenodd" d="M54.4 21.7192C54.4 21.8192 54.3 21.9192 54.2 21.9192C54.2 21.7192 54.3 21.6192 54.4 21.7192ZM54.7 21.5192L54.4 21.7192L54.3 21.6192C54.5 21.5192 54.6 21.5192 54.7 21.5192Z" fill="white"/>
<path fill-rule="evenodd" clip-rule="evenodd" d="M28.9 11.0191C28.9 13.6191 26.8 15.8191 24.2 15.8191H24.1C21.5 15.8191 19.3 13.7191 19.3 11.0191V10.9191C19.3 8.21914 21.5 6.11914 24.1 6.11914C26.7 6.11914 28.9 8.31913 28.9 11.0191Z" fill="#C2CDFF"/>
</svg>
