<svg width="97" height="25" viewBox="0 0 97 25" fill="none" xmlns="http://www.w3.org/2000/svg">
<path d="M9.492 6.346H9.996C11.1 6.346 11.85 6.52 12.246 6.868C12.654 7.216 12.858 7.924 12.858 8.992V10.468H11.058V8.884C11.058 8.452 10.968 8.176 10.788 8.056C10.62 7.936 10.356 7.876 9.996 7.876H9.492C9.132 7.876 8.862 7.936 8.682 8.056C8.514 8.176 8.43 8.452 8.43 8.884V16.606C8.43 16.906 8.478 17.128 8.574 17.272C8.682 17.404 8.79 17.482 8.898 17.506C9.018 17.518 9.216 17.524 9.492 17.524H9.996C10.272 17.524 10.464 17.518 10.572 17.506C10.692 17.482 10.8 17.404 10.896 17.272C11.004 17.128 11.058 16.906 11.058 16.606V13.888H9.672V12.358H12.858V16.408C12.858 17.476 12.654 18.184 12.246 18.532C11.85 18.88 11.1 19.054 9.996 19.054H9.492C8.388 19.054 7.632 18.88 7.224 18.532C6.828 18.184 6.63 17.476 6.63 16.408V8.992C6.63 7.924 6.828 7.216 7.224 6.868C7.632 6.52 8.388 6.346 9.492 6.346ZM16.91 6.346H17.504C18.608 6.346 19.358 6.52 19.754 6.868C20.162 7.216 20.366 7.924 20.366 8.992V16.408C20.366 17.476 20.162 18.184 19.754 18.532C19.358 18.88 18.608 19.054 17.504 19.054H16.91C15.806 19.054 15.05 18.88 14.642 18.532C14.246 18.172 14.048 17.464 14.048 16.408V8.992C14.048 7.924 14.246 7.216 14.642 6.868C15.05 6.52 15.806 6.346 16.91 6.346ZM16.946 17.524H17.468C17.84 17.524 18.116 17.464 18.296 17.344C18.476 17.224 18.566 16.948 18.566 16.516V8.884C18.566 8.452 18.476 8.176 18.296 8.056C18.116 7.936 17.84 7.876 17.468 7.876H16.946C16.574 7.876 16.298 7.936 16.118 8.056C15.938 8.176 15.848 8.452 15.848 8.884V16.516C15.848 16.948 15.938 17.224 16.118 17.344C16.298 17.464 16.574 17.524 16.946 17.524ZM27.9852 7.93V19H26.1852V7.93H23.8092V6.4H30.3612V7.93H27.9852ZM33.785 6.346H34.379C35.483 6.346 36.233 6.52 36.629 6.868C37.037 7.216 37.241 7.924 37.241 8.992V16.408C37.241 17.476 37.037 18.184 36.629 18.532C36.233 18.88 35.483 19.054 34.379 19.054H33.785C32.681 19.054 31.925 18.88 31.517 18.532C31.121 18.172 30.923 17.464 30.923 16.408V8.992C30.923 7.924 31.121 7.216 31.517 6.868C31.925 6.52 32.681 6.346 33.785 6.346ZM33.821 17.524H34.343C34.715 17.524 34.991 17.464 35.171 17.344C35.351 17.224 35.441 16.948 35.441 16.516V8.884C35.441 8.452 35.351 8.176 35.171 8.056C34.991 7.936 34.715 7.876 34.343 7.876H33.821C33.449 7.876 33.173 7.936 32.993 8.056C32.813 8.176 32.723 8.452 32.723 8.884V16.516C32.723 16.948 32.813 17.224 32.993 17.344C33.173 17.464 33.449 17.524 33.821 17.524ZM44.8602 7.93V19H43.0602V7.93H40.6842V6.4H47.2362V7.93H44.8602ZM50.66 6.346H51.254C52.358 6.346 53.108 6.52 53.504 6.868C53.912 7.216 54.116 7.924 54.116 8.992V16.408C54.116 17.476 53.912 18.184 53.504 18.532C53.108 18.88 52.358 19.054 51.254 19.054H50.66C49.556 19.054 48.8 18.88 48.392 18.532C47.996 18.172 47.798 17.464 47.798 16.408V8.992C47.798 7.924 47.996 7.216 48.392 6.868C48.8 6.52 49.556 6.346 50.66 6.346ZM50.696 17.524H51.218C51.59 17.524 51.866 17.464 52.046 17.344C52.226 17.224 52.316 16.948 52.316 16.516V8.884C52.316 8.452 52.226 8.176 52.046 8.056C51.866 7.936 51.59 7.876 51.218 7.876H50.696C50.324 7.876 50.048 7.936 49.868 8.056C49.688 8.176 49.598 8.452 49.598 8.884V16.516C49.598 16.948 49.688 17.224 49.868 17.344C50.048 17.464 50.324 17.524 50.696 17.524ZM55.4101 19V6.4H58.7221C59.7661 6.4 60.4741 6.568 60.8461 6.904C61.2181 7.228 61.4041 7.876 61.4041 8.848V12.268C61.4041 13.252 61.2181 13.906 60.8461 14.23C60.4741 14.554 59.7661 14.716 58.7221 14.716H57.2101V19H55.4101ZM58.6501 7.93H57.2101V13.186H58.6501C58.8541 13.186 59.0161 13.174 59.1361 13.15C59.2561 13.126 59.3641 13.048 59.4601 12.916C59.5561 12.784 59.6041 12.598 59.6041 12.358V8.758C59.6041 8.518 59.5561 8.332 59.4601 8.2C59.3641 8.068 59.2561 7.99 59.1361 7.966C59.0161 7.942 58.8541 7.93 58.6501 7.93Z" fill="white"/>
<rect x="0.5" y="0.5" width="67" height="24" stroke="white"/>
<rect x="67.5" y="0.5" width="29" height="24" stroke="white"/>
<path d="M81.5 5L89.7272 19.25H73.2728L81.5 5Z" fill="white"/>
</svg>
