<svg width="270" height="19" viewBox="0 0 270 19" fill="none" xmlns="http://www.w3.org/2000/svg">
<path d="M78.4049 7.16327H0V19H270V7.16327H186.626L179.448 0H85.5828L78.4049 7.16327Z" fill="#C7D1DB"/>
<path d="M126.735 8.2653C126.735 9.7869 125.501 11.0204 123.98 11.0204C122.458 11.0204 121.225 9.7869 121.225 8.2653C121.225 6.74369 122.458 5.51019 123.98 5.51019C125.501 5.51019 126.735 6.74369 126.735 8.2653ZM122.676 8.2653C122.676 8.98531 123.26 9.569 123.98 9.569C124.7 9.569 125.283 8.98531 125.283 8.2653C125.283 7.54528 124.7 6.96159 123.98 6.96159C123.26 6.96159 122.676 7.54528 122.676 8.2653Z" fill="black"/>
<path d="M137.755 8.2653C137.755 9.7869 136.522 11.0204 135 11.0204C133.478 11.0204 132.245 9.7869 132.245 8.2653C132.245 6.74369 133.478 5.51019 135 5.51019C136.522 5.51019 137.755 6.74369 137.755 8.2653ZM133.696 8.2653C133.696 8.98531 134.28 9.569 135 9.569C135.72 9.569 136.304 8.98531 136.304 8.2653C136.304 7.54528 135.72 6.96159 135 6.96159C134.28 6.96159 133.696 7.54528 133.696 8.2653Z" fill="black"/>
<path d="M148.776 8.2653C148.776 9.7869 147.542 11.0204 146.02 11.0204C144.499 11.0204 143.265 9.7869 143.265 8.2653C143.265 6.74369 144.499 5.51019 146.02 5.51019C147.542 5.51019 148.776 6.74369 148.776 8.2653ZM144.717 8.2653C144.717 8.98531 145.3 9.569 146.02 9.569C146.74 9.569 147.324 8.98531 147.324 8.2653C147.324 7.54528 146.74 6.96159 146.02 6.96159C145.3 6.96159 144.717 7.54528 144.717 8.2653Z" fill="black"/>
</svg>
