<?xml version="1.0" encoding="utf-8"?>
<!-- Generator: Adobe Illustrator 25.2.3, SVG Export Plug-In . SVG Version: 6.00 Build 0)  -->
<svg version="1.1" id="Layer_1" xmlns="http://www.w3.org/2000/svg" xmlns:xlink="http://www.w3.org/1999/xlink" x="0px" y="0px"
	 viewBox="0 0 1920 1080" style="enable-background:new 0 0 1920 1080;" xml:space="preserve">
<style type="text/css">
	.st0{clip-path:url(#SVGID_2_);}
	.st1{fill:#CE0A00;}
	.st2{fill:#3680FF;}
	.st3{fill:#1F3FAD;}
	.st4{fill:#FD7706;}
	.st5{fill:#FDCF23;}
</style>
<g>
	<defs>
		<rect id="SVGID_1_" x="0.5" y="0.5" width="1919" height="1079"/>
	</defs>
	<clipPath id="SVGID_2_">
		<use xlink:href="#SVGID_1_"  style="overflow:visible;"/>
	</clipPath>
	<rect x="0.5" y="0.5" class="st0" width="1919" height="1079"/>
	<g class="st0">
		<path class="st1" d="M-169.2,552.5c48.9-20.7,106.8-19,154.4,4.6c52.3,26,94.9,77.4,153.2,80.8c50,2.9,95.2-31.2,145-35.8
			c67.1-6.1,128.4,41.5,195.7,44.2c76.4,3,141.9-51.4,214.5-75.5c138.4-46.1,300.7,18.5,431-47.1c40.9-20.6,75.8-53,119.3-67.2
			c92.8-30.3,193.4,30.4,289.9,15.2c126.4-20,198-157.6,312.6-214.4c61.8-30.7,134.3-36,202.2-23.5c-17.7,198.2-35.3,396.4-53,594.6
			c-0.4,4.4-0.9,9.1-3.7,12.5c-3.9,4.8-10.7,5.5-16.8,6c-646,43-1295.7,34.3-1938.8,108.9c-57.6,6.7-119.3,13.4-170.9-13.1
			c-38.5-19.8-66.5-56.1-84.1-95.6c-42.9-96.2-26-216.2,41.7-296.9"/>
		<path d="M-169,553.2c42.1-17.3,89.8-19.2,133-4.2c38.9,13.5,69.5,41.4,103.6,63.2c30.5,19.4,63.3,31.2,99.7,24.4
			c42.1-7.8,79.8-32.6,123.4-34.2c43.2-1.6,83.6,17.7,123.7,31c37.9,12.6,75.3,17.8,114.5,8c39.2-9.8,74.8-29.8,110.9-47.2
			c40.8-19.7,82.1-33.2,127.3-37.9c85.3-8.9,171.3,6.1,256.6-3.6c39.6-4.5,78.3-15,113.1-34.8c38.4-21.8,72.8-52,116.3-63.5
			c85.5-22.6,170.7,23.5,256.5,20.2c69.5-2.7,126.1-42.6,176.1-87.5c53.9-48.3,104.3-104.6,171.7-134.4
			c42.8-18.9,90.1-26.2,136.7-24.5c10.4,0.4,20.9,1.2,31.3,2.5c3.3,0.4,16,0.6,19.2,2.8c5.4,3.9,1.8,16.8,1.3,22.5
			c-2.3,25.5-4.5,51.1-6.8,76.6c-9.1,102.1-18.2,204.2-27.3,306.3c-4.5,51.1-9.1,102.1-13.6,153.2c-1.1,12-1.8,24.1-3.2,36
			c-1.3,11-9.3,16.7-19.7,17.7c-7.4,0.7-14.9,1-22.4,1.5c-25.4,1.6-50.7,3.2-76.1,4.7c-202.3,11.9-404.9,19.5-607.4,26.7
			c-203.2,7.3-406.5,14.3-609.6,25.3c-202.2,10.9-404.2,25.8-605.4,48.7C8.7,958-38,965.2-83.7,957.8
			c-45.3-7.3-83.1-31.6-109.9-68.6c-48-66.3-58.6-155.4-37.4-233.4c10.5-38.6,29-74.5,54.5-105.3c0.6-0.7-0.4-1.8-1.1-1.1
			c-52.2,63-74.5,148-62.1,228.7c12.6,81.3,62.4,162.7,147.9,179.7c47.3,9.4,96.2,2,143.5-3.4c55.7-6.3,111.4-12.1,167.3-17.3
			c110.8-10.3,221.9-18.6,333-25.4c222.4-13.7,445.1-21.8,667.7-29.8c222.7-8,445.5-15.9,667.9-29.2c27.6-1.6,55.2-3.3,82.8-5.2
			c6.4-0.4,14.3-0.2,19.7-4.4c6.9-5.3,6.2-16.4,6.8-24.1c4.9-55.6,9.9-111.1,14.8-166.7c10-111.9,19.9-223.7,29.9-335.6
			c2.5-27.8,4.9-55.6,7.4-83.3c0-0.3-0.2-0.7-0.6-0.7c-77.7-13.9-159.1-4.9-227,37.2c-56.5,35-101,85.4-151.2,128.4
			c-25.6,22-53.1,42.4-83.9,56.3c-35.7,16.1-73.8,20.8-112.6,17.3c-77.5-7-158.6-42.7-235.7-14.5c-37.9,13.9-69.1,40.5-104,60.1
			c-36.9,20.6-78.1,30.7-120,34.6c-81.7,7.5-163.8-5.7-245.5,2.4c-38.2,3.8-74.7,13.3-109.8,28.9c-36.9,16.4-71.9,37.2-110.1,50.3
			c-40.8,14-80.6,14.4-121.9,2c-37-11.1-72.6-28.5-111.2-33.6c-39.4-5.3-74,8.7-110.4,21.8c-19.3,6.9-39.2,13.1-59.9,13.3
			c-20.6,0.2-40.3-6.1-58.5-15.5c-32.9-17.1-60.4-42.6-92.7-60.7c-33-18.4-71.1-26.5-108.8-23.1c-19,1.7-37.5,6.4-55.1,13.7
			C-170.3,552.1-169.9,553.6-169,553.2L-169,553.2z"/>
	</g>
	<g class="st0">
		<path class="st2" d="M-157.1,471c38.7-32.8,94.4,8,120.6,53.3s48.4,102.3,95.6,116.6c76.4,23,157.3-86.3,226.2-43.4
			c31.2,19.4,46.1,65.3,80.7,75.7c24.4,7.4,49.5-5.9,74.6-9.6c41.2-6.2,81.5,13.7,120.7,28.9c171.7,66.9,369.5,48.7,528.6-48.7
			c52.7-32.3,101.4-72.8,156.9-99.1s121.2-36.9,175.4-7.6c29.2,15.8,60.1,43.2,90.2,29.6c15.3-6.9,28.9-24.1,44.9-19.3
			c10.1,3,16.2,13.9,24.3,21c32.9,28.9,77.8-9.3,117.1-26c94.1-39.7,189.8,54.2,290,67.2c43.7,5.7,88.3-4.4,131.8,2.7
			c43.5,7.1,89.4,40.5,90.4,88.6c0.8,39.6-28.8,72-59.7,92.7c-68.2,45.5-150,58.3-229.4,66.5c-146.6,15.2-293.9,18.2-441,26.3
			c-279,15.4-557.2,49-832.6,100.8c-171.3,32.2-345.5,71.5-517.3,43.2C-41.1,1002.3-213.7,889.9-267.5,709
			c-23-77.1-13.2-179.7,53.8-214.3c20.4-10.5,44.3-13.6,61.8-29.2"/>
		<path d="M-156.5,471.5c40.6-32.4,90.8,10,113.7,44c21.8,32.3,34.7,70.4,61.5,99.4c21.8,23.7,50.7,34.2,82.4,27.9
			c33-6.6,62.1-25.3,92.3-39.1c33.4-15.3,70.9-24.7,101.5,1.9c25,21.7,39.6,61.9,75,69.4c21.2,4.5,42.1-4.8,62.5-9.1
			c27.9-6,55.4-0.2,81.9,9.1c45.8,16.1,89.3,35.1,137.1,45.2c87.4,18.5,178.9,16.9,265.7-4.1c44.1-10.7,87-26.3,127.6-46.5
			c44.2-22,84-50.6,124.7-78.2c41.6-28.1,85.3-55,134.8-66c25.2-5.6,51.7-7.1,77.1-2.1c25,5,45.4,17.4,67,30.3
			c15.6,9.4,34.1,19.9,53.1,17c18.8-2.9,36-28.2,55.4-22.5c11.5,3.4,17.7,16.3,26.8,23.2c5.4,4,11.5,6.7,18.1,7.8
			c17.2,2.9,34.6-4.6,49.7-12c20-9.8,39.1-22.4,60.7-28.7c20.8-6,42.7-6.1,63.9-2.2c42.3,7.7,81.2,28.1,120.3,45.1
			c38.7,16.8,77.8,30.5,120.4,30.9c49.4,0.5,102.1-10,146.8,16.8c41.8,25.1,59.7,73.7,33.7,117.3c-24.9,41.8-74.2,66.5-118.5,82.3
			c-46.5,16.6-95.7,24.1-144.5,29.5c-54.6,6-109.4,10.1-164.3,13.4c-111,6.7-222.1,9.9-333.1,16.8c-109.5,6.8-218.8,16.4-327.9,28.8
			c-108.4,12.3-216.4,27.4-324,45.2c-108.3,17.9-215.8,41.2-324.2,58.5c-108.8,17.3-220.5,27.1-329.8,9
			c-79.5-13.1-156.6-43.4-223.1-89c-68.4-46.9-125.2-111-158.4-187.4c-29.7-68.5-45.6-163.2,2.1-227.9
			c11.7-15.8,27.1-27.5,45.3-34.9c17.9-7.3,36.5-11.9,51.7-24.6c0.7-0.6-0.3-1.7-1.1-1.1c-18.8,15.7-43.3,18.8-64.3,30.5
			c-13,7.2-24.1,17.4-32.9,29.4c-21.1,28.6-28.8,65.4-29.7,100.4c-2,79.1,32.8,156.8,80.6,218.3c50.1,64.4,117.9,113.9,192.3,146.9
			c83.6,37.1,174.2,51.1,265.3,50.8c110.6-0.4,219.8-20.6,328.1-41.3c112.4-21.5,225.1-41.3,338.4-57.5
			c228.2-32.7,457.5-51,687.8-61.3c112.7-5.1,225.9-9.5,337.9-23.2c48.3-5.9,96.7-14.7,142-32.8c38.5-15.4,79-37.7,102.6-73.1
			c20.6-30.8,21.5-69.5-2-99c-25.8-32.3-66.2-43.2-105.9-43.8c-26.8-0.4-53.5,2.6-80.2,1.5c-24.7-1.1-48.6-6.8-71.8-15.1
			c-41.4-14.7-80-36.1-121.5-50.5c-36.3-12.6-75.5-18.8-112.3-4.6c-37.3,14.4-88.3,61.2-125,22.3c-11.4-12.2-21.3-21.7-38.3-13.2
			c-8.3,4.2-15.3,10.7-23.5,15c-15,7.8-31.1,5.1-45.9-1.5c-21.5-9.6-39.8-25.1-61.8-33.8c-21-8.3-43.7-11.4-66.2-10.4
			c-101.3,4.4-177.7,80.9-260.5,129.6C995,698.9,897,727.4,797.7,731.1c-48.9,1.9-98-2.3-145.9-12.4c-23.4-5-46.5-11.4-69.1-19.2
			c-24.4-8.4-47.8-19.3-72.2-27.6c-22.5-7.6-46.3-12.7-70.1-9.2c-25.3,3.7-51.5,18.2-77.1,8.7c-36.8-13.7-48.1-59.8-82.6-77.5
			c-27.3-14-57.6-5.1-84,6.6c-33.2,14.7-65.1,36.3-101.6,41.7c-46.3,6.8-77.5-25.1-99.6-61.9c-21.3-35.4-36.3-74.6-69.6-101
			c-24.4-19.4-57-30.2-83.6-9C-158.4,471.1-157.3,472.1-156.5,471.5L-156.5,471.5z"/>
	</g>
	<g class="st0">
		<path class="st3" d="M-178.8,765.3c33,7.7,67.4-8.4,93.3-30c26-21.6,46.7-48.9,73-70c62.7-50.5,156.6-59.5,228.1-22
			c70.9,37.2,114.3,111.4,180.9,155.5c57.9,38.3,132.3,51.4,200,35c73-17.6,133.6-66,197.2-105.6c63.6-39.6,139.8-72,212.4-52.7
			c70.5,18.7,119.5,81.2,184.3,114.5c94.7,48.6,212.7,28.1,307-21.3c94.2-49.4,171.5-124.5,254.3-191c47.2-37.9,98-74,156.9-89.2
			c58.8-15.2,127.6-5.6,169.7,37.8c-61.9,177.5-91.7,365.8-87.7,553.5c-727.3,91.8-1462.1,106.4-2195.2,120.9
			c-9.3,0.2-19.3,0.1-26.8-5.3c-7.4-5.3-10.5-14.5-12.9-23.2c-34.3-124.2-2.4-255.9,31.1-380.3c3.7-13.9,8.1-28.7,19.3-37.9
			c11.2-9.2,31.5-8.6,37.4,4.6"/>
		<path d="M-179,766c39,8.1,75.3-12.6,103.2-38.2C-42,696.9-14.6,661,27.9,641.1c39-18.2,83.7-24.2,126.2-17.4
			c42.6,6.9,79.5,27.6,111.8,55.5c31.2,27,58,58.6,88.3,86.6c29.2,27,62,48.9,99.9,61.8c38.5,13,80.1,17,120.3,11.2
			c42.8-6.2,82.5-24.2,119.6-45.9c79.4-46.5,154-112.9,249.4-121.5c46.6-4.2,89,10.3,127.5,35.7c34,22.5,64.2,50.4,98.9,72
			c72.6,45.3,160.5,47.6,241.2,24.9c85.8-24.1,159.5-76,227.9-131.6c36-29.3,70.9-59.8,107-89c35.8-29,73-57.2,115-76.7
			c41.2-19.1,86.6-28.9,131.9-21.7c20.1,3.2,39.7,9.7,57.3,20.1c7.9,4.7,18.7,10.6,24.1,18.2c5.9,8.3-5.4,28.8-8.4,38.1
			c-30.2,93.6-51.5,190-63.8,287.6c-6.2,49.1-10.1,98.5-11.6,147.9c-0.4,11.6-0.6,23.3-0.7,34.9c-0.1,12.8,1.6,26.6,0.1,39.3
			c-1,8.7-4.8,8.7-12.8,9.7c-6.1,0.8-12.1,1.5-18.2,2.3c-13.7,1.7-27.3,3.3-41,5c-207.4,24.7-415.4,43.4-623.8,57.7
			c-208.4,14.4-417.2,24.5-626,32.1c-208.2,7.6-416.4,12.7-624.6,17.1c-52.8,1.1-105.6,2.2-158.5,3.2c-26,0.5-52,1-78.1,1.5
			c-12.2,0.2-27.3,2.4-37.7-5.1c-11.2-8-13.6-24.8-16.6-37.4c-23.6-101.1-5.3-206.1,19.3-305.2c5.5-22.3,11-44.8,17.5-66.9
			c3.5-11.7,8.4-25,19.2-32c10.8-7,27.5-6.4,34.1,5.9c0.5,0.8,1.8,0.1,1.3-0.8c-4.9-9-14.5-12.2-24.4-10.8
			c-13.1,1.9-21.6,12-26.8,23.5c-8.3,18.4-11.9,39.6-17,59.1c-5.5,21.5-10.8,43.1-15.6,64.7c-18.5,84.5-29.1,173.1-10.1,258.5
			c3,13.6,5.5,33.9,18,42.7c13.4,9.5,35,5.2,50.2,4.9c46.7-0.9,93.4-1.9,140.1-2.8c94.2-1.9,188.3-3.9,282.5-6.2
			c186.8-4.5,373.5-10,560.2-17.9c187.3-7.9,374.6-18,561.5-31.8c186.9-13.8,373.6-31.1,559.6-53.4c22.8-2.7,45.6-5.5,68.4-8.4
			c0.4,0,0.8-0.3,0.8-0.8c-3.8-187.9,26-375.7,87.6-553.3c0.1-0.2,0-0.5-0.2-0.7c-54-54.2-139.1-53.6-205.9-26.1
			c-79.1,32.6-143.4,95.3-208.2,149.5c-70.2,58.6-144.2,116.5-231.7,146.4c-82.7,28.3-177.3,32.1-254.8-13.2
			c-66.6-39-119.8-105.8-201.4-112.7c-87.6-7.5-165.3,45.6-234.9,91.3c-37.7,24.8-76.3,49.2-119.1,64.2
			c-42.2,14.8-87.5,18.5-131.5,10.5c-43.2-7.9-83-26.8-117.1-54.5c-30.7-24.9-56.7-54.9-84.9-82.4c-26.3-25.6-55-49.6-89.3-63.7
			c-34.7-14.3-73.3-18.6-110.5-13.5c-36,4.9-70.9,18.7-99.6,41c-35.1,27.2-60.1,66.2-99,88.5c-21.2,12.1-45.1,18.6-69.4,13.6
			C-179.6,764.4-180,765.8-179,766L-179,766z"/>
	</g>
	<g class="st0">
		<path class="st4" d="M-203,853.2c49.6-69.3,158.7-70.9,239.3-38c80.7,32.9,147.9,91.3,229,123.3c124.8,49.3,268.7,30.2,394.9-15.6
			c126.2-45.8,240.6-116.6,361.7-173.6c166.1-78.1,349.5-130.8,534.3-121.5c184.8,9.4,371,87.1,480.8,229.8
			c9.2,12,18.2,25.1,19.6,40c1.3,14-4.1,27.6-8.6,40.9c-16.1,48.6-19.3,101.1-9,151.1c-396.8,61.2-785.1,174.5-1185.7,205.6
			c-116.6,9-238.2,10.2-345.2-35c-123.5-52.1-227.9-164.9-362.7-159.3c-64.8,2.7-124.2,33.3-185.4,54c-61.2,20.6-134.1,30-187.1-5.9
			c-70.2-47.7-69.5-146.6-55.8-228c3.8-23,8.7-47.1,24.1-65.1c15.5-18,45.1-27,64.7-13.2"/>
		<path d="M-202.3,853.5c44.9-61,130.7-67,198.8-50.4C80,823.4,148,881.3,223.1,920c161.4,83.2,346.7,45.8,505.7-23.8
			c85.7-37.5,167.2-83.8,250.9-125.5c84.6-42.2,172.1-78.4,263.2-103.9c171-47.8,354.9-56.8,524.1,3.3c76,27,147.8,67.2,207.8,121.4
			c14.6,13.2,28.4,27.2,41.4,41.9c13.9,15.8,30.7,33.3,37.5,53.6c8.2,24.5-6.9,50.3-12.7,73.9c-5.2,21.4-8.1,43.4-8.4,65.4
			c-0.2,10.6,0.2,21.3,1.2,31.8c0.7,7.1,6.9,27.5,0.8,31.5c-3.7,2.4-13.3,2.1-17.8,2.8c-5.9,0.9-11.9,1.9-17.8,2.9
			c-11.9,1.9-23.7,3.9-35.6,5.9c-48.9,8.3-97.7,17.3-146.5,26.7c-96,18.5-191.7,38.6-287.5,58.4c-192.6,39.7-385.8,78.2-581.5,99.4
			c-92.9,10-187.5,18.9-280.9,10.8c-46-4-91.7-12.5-135.2-28c-38.9-13.9-75.2-33.8-110.4-55.2c-64.8-39.3-128.6-85.9-203.1-105.1
			c-36.9-9.5-74.9-10.6-112.3-3.1c-45,9-87,27.9-130,43.5c-73.7,26.7-173.6,44.4-229.9-25.6c-46.4-57.7-39.2-144.7-26.1-212.8
			c4-20.9,10.2-43.3,26.3-58.3c15.8-14.6,40.6-20.7,59.4-8.6c0.8,0.5,1.6-0.8,0.8-1.3c-28.2-18-62.3,2.2-75.9,28.8
			c-8.8,17.4-12.1,37.1-15,56.2c-2.7,17.3-4.7,34.7-5.7,52.2c-3.6,67.6,10.7,144.9,76.8,178.5c76.9,39.1,165.7,1.2,239.3-26.5
			c44.7-16.9,90.8-31.6,139.2-29.6c41.6,1.7,81.5,14.9,118.8,32.8c74.2,35.6,139,88.3,214.2,122.2c83.6,37.7,176.5,46.1,267.3,44
			c98.4-2.2,196.9-13.8,294.3-27.4c101.2-14.1,201.7-32.1,302-51.6c200.8-39.1,400.3-84.7,602-119c25.2-4.3,50.4-8.4,75.7-12.3
			c0.4-0.1,0.6-0.6,0.5-0.9c-9.8-49.5-7.1-100.7,8.4-148.7c6.2-19.3,13.6-37.8,5.5-57.8c-6.8-16.9-20.2-31.6-31.9-45.3
			c-51.5-60.3-117-107.6-188.4-141.7c-156.6-74.8-334.6-84.5-503.3-51.5c-92.8,18.2-183,48.6-269.6,86.5
			c-88.3,38.7-172.1,86.4-258.4,129.1c-166.5,82.4-368.2,151.3-549.4,72.4c-79.7-34.7-147.1-94.3-229.6-123.1
			c-61.5-21.4-139.7-25.7-195.6,12.8c-12.1,8.4-22.5,18.7-31.3,30.5C-204.2,853.6-202.9,854.3-202.3,853.5L-202.3,853.5z"/>
	</g>
	<g class="st0">
		<path class="st5" d="M-155.7,717.2c35.1-10.9,66.3,26.4,81.3,61.2S-45.2,855-10.4,867c15.2,5.3,31.8,3.5,47.4,7.1
			c48,11,79.3,69.6,128.5,70.5c24.2,0.4,46.9-13.9,71.1-14.3c36.9-0.5,66.2,30.2,98.9,48c99.6,54.2,218.1-14.7,330.5-18.1
			c121.8-3.7,238.7,71.4,359.6,55.9c68.7-8.8,132-46.6,201-53.1c75-7.1,149.4,23.3,224.5,18.5c79.1-5,151.5-48.4,229.8-61.4
			c64.2-10.6,129.6-0.5,193.9,9.7c77.9,12.3,155.7,24.6,233.6,36.9c20,3.2,42.6,8,53.2,26c19.9,33.7-19.6,71.4-54.3,87.6
			c-239.5,111.4-513,92.2-775.2,102.9c-431.5,17.6-872.5,120.5-1288.8,0.8c-83.1-23.9-166.7-58.4-226.4-123.1
			c-59.6-64.8-89.4-166.2-52.1-247.1c18.4-39.9,50.6-70.9,81.9-100.8"/>
		<path d="M-155.5,718c44.5-12,71.6,39.9,85.7,73.2c11.7,27.8,24.9,61.5,54.5,74.7c18.3,8.2,39.1,4.6,58,10.6
			C60.1,882,75,893.3,89,904.6c22.3,17.9,46.1,40.2,76.5,40.8c19.9,0.4,38.1-9,57.4-12.7c22.9-4.4,43.4,2.8,62.9,14.5
			c16.3,9.8,31.2,21.7,47.8,30.9c16.1,9,33.6,15.1,51.8,18.5c79,14.4,158.3-19.3,235.5-31.2c44.9-6.9,89-4.7,133.5,4.5
			c41.6,8.6,82.2,21.4,123.3,31.9c39.1,10,79.2,18,119.8,17.1c42.6-0.9,82.8-13.7,122.8-27.5c42.5-14.6,85.1-28.8,130.6-28.8
			c46.7,0.1,92.4,11.5,138.6,17.1c43.5,5.2,85.1,2.4,127.3-9.3c41.9-11.6,82-28.6,123.8-40.4c96.9-27.2,195.5-5.7,292.6,9.6
			c48.3,7.6,96.6,15.3,144.8,22.9c19.5,3.1,40.5,4.5,59,11.7c23.5,9,35.9,32.2,25,56c-17.7,38.7-65.2,55.1-101.8,69.4
			c-40.6,15.9-82.5,28.5-124.9,38.4c-87.4,20.5-177.1,29.8-266.6,34.6c-89.3,4.8-178.7,5.3-268.1,7.5
			c-93.3,2.4-186.4,8.2-279.3,16.2c-188.4,16.2-376.5,39-565.8,43.2c-185.4,4.1-375.8-9.4-552.6-69.1
			c-78-26.3-156.6-66.6-205.4-135.3c-45.7-64.2-65.7-153.6-29.1-226.6c18.7-37.4,49.3-66.8,79.2-95.3c0.7-0.7-0.4-1.7-1.1-1.1
			c-30,28.6-60.7,58.1-79.5,95.6c-16.3,32.4-21.7,69.2-18.1,105.1c7.6,75.8,51.2,142.3,111.2,187.6c68.5,51.7,153.3,77.9,235.7,98
			c91.7,22.2,185.5,34.6,279.6,39.9c195,11,390.1-7.3,584.1-25.7c98.5-9.3,196.9-18.8,295.6-24.9c92.7-5.7,185.5-6.9,278.3-9
			c181.1-4,367-13,537-81.8c32.8-13.3,69.4-27.6,89-59.1c16.1-25.9,6.3-54.2-22.1-65.2c-19.3-7.4-41.1-8.8-61.4-12
			c-24.9-3.9-49.8-7.9-74.7-11.8c-50.5-8-100.9-16.2-151.4-23.9c-47.4-7.2-95.5-13-143.5-8.9c-45.1,3.9-87.7,18.6-130.1,33.4
			c-43.3,15.1-87.5,30.3-133.8,31.6c-48.3,1.4-95.5-10.4-143.1-16.5c-45.2-5.8-87.9-3.2-131.7,9.7c-43.4,12.7-85.1,31.2-129.8,39.1
			c-90.5,16.1-178.3-20.8-265-41.1c-41.5-9.7-83.7-15.6-126.4-11.7c-41.7,3.8-82.3,14.6-123,23.7c-41.3,9.2-84.2,17.6-126.7,12.4
			c-23.1-2.8-45.3-10-65.4-21.7c-16.9-9.9-32.3-22.2-49.4-31.9c-14.5-8.2-30.3-14.2-47.2-13.5c-22.4,1-42.7,13-65.1,14.1
			c-36.7,1.8-63.9-29.2-91-49.3c-12.5-9.2-26.1-17.6-41.3-21.1c-23-5.3-46.7-1.7-66.1-17.8c-29.8-24.8-35.9-66.3-55.4-98
			c-15.1-24.5-40.3-49.5-71.5-41.1C-156.8,716.8-156.4,718.2-155.5,718L-155.5,718z"/>
	</g>
</g>
</svg>
