<svg xmlns="http://www.w3.org/2000/svg" viewBox="0 0 26.41 13.22"><g id="Layer_2" data-name="Layer 2"><g id="Layer_1-2" data-name="Layer 1"><path d="M11.51,2.56v7H9.76v-.7H6.6v4.37H4.83V8.85H1.68v.77H0V2.56H4.83V.14H6.6V2.56ZM4.83,7.21v-3H1.68v3Zm4.93,0v-3H6.6v3Z"/><path d="M24,4.12a14.72,14.72,0,0,1-2.88,5,13.52,13.52,0,0,0,5.29,2.43,7.47,7.47,0,0,0-1.12,1.55,14.06,14.06,0,0,1-5.48-2.74,15.4,15.4,0,0,1-5.67,2.82,8.2,8.2,0,0,0-1-1.55,14.36,14.36,0,0,0,5.45-2.48,15.69,15.69,0,0,1-3-5H13.4V2.49h5.91a10.52,10.52,0,0,0-.79-2L20.3,0a11.47,11.47,0,0,1,1,2.12l-1.21.37h6.09V4.12Zm-6.68,0A12,12,0,0,0,19.84,8a11.19,11.19,0,0,0,2.28-3.88Z"/></g></g></svg>