<svg xmlns="http://www.w3.org/2000/svg" xmlns:xlink="http://www.w3.org/1999/xlink" viewBox="0 0 1000.87 498.49"><defs><style>.cls-1{fill:none;}.cls-2{isolation:isolate;}.cls-3{fill:#cacaca;}.cls-4{clip-path:url(#clip-path);}.cls-5{fill:#999;}.cls-6{fill:#9e9e9e;}.cls-7{fill:#a3a3a3;}.cls-8{fill:#a8a8a8;}.cls-9{fill:#adadad;}.cls-10{fill:#b3b3b3;}.cls-11{fill:#b8b8b8;}.cls-12{fill:#bdbdbd;}.cls-13{fill:#c2c2c2;}.cls-14{fill:#c7c7c7;}.cls-15{fill:#949494;}.cls-16{fill:#8f8f8f;}.cls-17{fill:#8a8a8a;}.cls-18{fill:#858585;}.cls-19{fill:#fff;}.cls-20{fill:#fdcf23;}.cls-21{clip-path:url(#clip-path-2);}.cls-22{fill:#cbcbcb;}.cls-23{fill:#fd7706;}.cls-24{fill:#c9c9c9;}.cls-25{clip-path:url(#clip-path-3);}.cls-26{fill:#ccc;}</style><clipPath id="clip-path"><path class="cls-1" d="M689.8,325.87l.28,13.47c.85,39.4-33.05,79.5-101.63,110.68-135,61.4-353.42,64.94-487.77,7.91C34.57,429.87,1.13,392.37.31,354.2L0,340.72C.84,378.9,34.28,416.4,100.39,444.46c134.35,57,352.73,53.49,487.77-7.91C656.74,405.37,690.64,365.26,689.8,325.87Z"/></clipPath><clipPath id="clip-path-2"><path class="cls-1" d="M357.55,260.56l2.26,56.08c.09,2.15-1.73,4.37-5.43,6.09-7,3.27-18.11,3.5-24.79.53-3.15-1.41-4.75-3.28-4.83-5.2L322.5,262c.08,1.92,1.68,3.79,4.83,5.19,6.68,3,17.78,2.74,24.79-.52C355.82,264.93,357.64,262.71,357.55,260.56Z"/></clipPath><clipPath id="clip-path-3"><path class="cls-1" d="M357.63,82.11l2.09,48.35c.1,2.09-1.69,4.25-5.33,5.94-7,3.23-18.06,3.53-24.79.68-3.2-1.36-4.84-3.2-4.92-5.09l-2.1-48.35c.08,1.89,1.72,3.73,4.93,5.09,6.72,2.85,17.82,2.55,24.78-.68C355.93,86.36,357.72,84.2,357.63,82.11Z"/></clipPath></defs><g id="Layer_2" data-name="Layer 2"><g id="Background"><g class="cls-2"><ellipse class="cls-3" cx="344.91" cy="333.3" rx="344.97" ry="151.57" transform="translate(-7.09 7.49) rotate(-1.23)"/><g class="cls-2"><g class="cls-4"><g class="cls-2"><path class="cls-5" d="M689.8,325.87l.28,13.47a67.13,67.13,0,0,1-.76,11.66L689,337.53a68.21,68.21,0,0,0,.77-11.66"/><path class="cls-6" d="M689,337.53l.29,13.47a72.23,72.23,0,0,1-2.66,11.25l-.29-13.47A72.23,72.23,0,0,0,689,337.53"/><path class="cls-7" d="M686.37,348.78l.29,13.47a81.67,81.67,0,0,1-4.41,10.93L682,359.71a81.67,81.67,0,0,0,4.41-10.93"/><path class="cls-8" d="M682,359.71l.29,13.47a97.09,97.09,0,0,1-6.2,10.78l-.29-13.48a97,97,0,0,0,6.2-10.77"/><path class="cls-9" d="M675.76,370.48l.29,13.48a114.68,114.68,0,0,1-8.13,10.8l-.28-13.47a116.39,116.39,0,0,0,8.12-10.81"/><path class="cls-10" d="M667.64,381.29l.28,13.47a143.3,143.3,0,0,1-10.41,11l-.29-13.47a143.48,143.48,0,0,0,10.42-11"/><path class="cls-11" d="M657.22,392.31l.29,13.47q-6.13,5.85-13.42,11.53l-.29-13.47q7.28-5.67,13.42-11.53"/><path class="cls-12" d="M643.8,403.84l.29,13.47q-8.21,6.39-17.87,12.52l-.29-13.47q9.66-6.12,17.87-12.52"/><path class="cls-13" d="M625.93,416.36l.29,13.47a296.39,296.39,0,0,1-27.6,15.38l-.29-13.47a296.39,296.39,0,0,0,27.6-15.38"/><path class="cls-14" d="M598.33,431.74l.29,13.47q-4.95,2.44-10.17,4.81c-39.33,17.89-85.73,30.86-135.07,38.86l-.29-13.47c49.34-8,95.74-21,135.07-38.86q5.22-2.37,10.17-4.81"/><path class="cls-13" d="M453.09,475.41l.29,13.47c-13.1,2.12-26.41,3.9-39.85,5.32l-.29-13.47c13.44-1.43,26.75-3.2,39.85-5.32"/><path class="cls-12" d="M413.24,480.73l.29,13.47q-16,1.69-32.24,2.72L381,483.45q16.22-1,32.24-2.72"/><path class="cls-11" d="M381,483.45l.29,13.47q-14.35.9-28.79,1.29l-.29-13.47q14.43-.39,28.79-1.29"/><path class="cls-10" d="M352.21,484.74l.29,13.47q-13.39.36-26.78.26L325.43,485q13.38.09,26.78-.26"/><path class="cls-9" d="M325.43,485l.29,13.47q-12.8-.09-25.52-.61l-.29-13.47q12.72.51,25.52.61"/><path class="cls-8" d="M299.91,484.39l.29,13.47q-12.42-.5-24.73-1.39L275.18,483q12.3.9,24.73,1.39"/><path class="cls-7" d="M275.18,483l.29,13.47q-12.24-.9-24.31-2.18l-.29-13.47q12.08,1.29,24.31,2.18"/><path class="cls-6" d="M250.87,480.82l.29,13.47q-12.22-1.31-24.23-3l-.29-13.47q12,1.71,24.23,3"/><path class="cls-5" d="M226.64,477.8l.29,13.47q-12.45-1.77-24.58-4l-.29-13.47q12.13,2.22,24.58,4"/><path class="cls-15" d="M202.06,473.81l.29,13.47q-13-2.37-25.53-5.23l-.28-13.47q12.54,2.87,25.52,5.23"/><path class="cls-16" d="M176.54,468.58l.28,13.47q-14-3.21-27.46-7.06l-.29-13.47q13.41,3.84,27.47,7.06"/><path class="cls-17" d="M149.07,461.52l.29,13.47q-16.65-4.75-32.17-10.5L116.9,451c10.33,3.83,21.08,7.33,32.17,10.51"/><path class="cls-18" d="M116.9,451l.29,13.48q-8.44-3.14-16.51-6.56C34.57,429.87,1.13,392.37.31,354.2L0,340.72C.84,378.9,34.28,416.4,100.39,444.46q8.06,3.42,16.51,6.55"/></g></g></g></g><g class="cls-2"><path class="cls-19" d="M332.43,317.44l-.09-4.5c.79-.21,1.62-.4,2.46-.57,0,1.5.06,3,.1,4.49C334.05,317,333.23,317.22,332.43,317.44Z"/><path class="cls-19" d="M332.43,317.44l-.93.26-.09-4.49.93-.27Z"/><path class="cls-20" d="M391.24,302.38c-20.18-8.56-49.92-10.31-74.94-5.46l-.09-4.49c25-4.85,54.75-3.11,74.93,5.46,13.25,5.62,19.95,13.15,20.11,20.82l.1,4.49C411.18,315.53,404.48,308,391.24,302.38Z"/><path class="cls-20" d="M293.38,304c-13.74,6.24-20.53,14.3-20.37,22.2l-.09-4.49c-.17-7.9,6.62-16,20.36-22.2a103.21,103.21,0,0,1,22.93-7.05l.09,4.49A103.28,103.28,0,0,0,293.38,304Z"/><path d="M409.25,318.75l.09,4.49c-.16-7.45-6.66-14.76-19.52-20.22-26.14-11.09-68.77-10.4-95,1.55-13.34,6.06-19.93,13.88-19.77,21.56l-.09-4.49c-.17-7.68,6.42-15.5,19.77-21.56,26.27-11.95,68.9-12.64,95-1.55C402.58,304,409.09,311.3,409.25,318.75Z"/><path class="cls-19" d="M356,318.4c-5.69-2.41-14.05-2.9-21.09-1.54,0-1.49-.07-3-.1-4.49,7-1.36,15.4-.87,21.09,1.54,3.74,1.59,5.63,3.71,5.68,5.87l.09,4.49C361.62,322.11,359.73,320,356,318.4Z"/><path class="cls-19" d="M328.44,318.85c-3.88,1.76-5.79,4-5.75,6.26l-.09-4.49c-.05-2.23,1.87-4.5,5.74-6.26a25.74,25.74,0,0,1,3.07-1.15l.09,4.49A25.58,25.58,0,0,0,328.44,318.85Z"/><path d="M643.61,313.67l.09,4.49c-.74-34.78-31.83-66.92-87.76-90.66-56.8-24.11-132.44-36.68-213-35.37s-156.35,16.32-213.45,42.28-88.66,59.75-88.87,95.17c0,.54,0,1.09,0,1.63l-.09-4.49c0-.54,0-1.09,0-1.64.2-35.41,31.77-69.2,88.87-95.16s132.89-41,213.44-42.28S499,198.9,555.85,223C611.78,246.75,642.86,278.89,643.61,313.67Z"/><path class="cls-20" d="M643.7,318.16c0,.54,0,1.09,0,1.64l-.1-4.49c0-.55,0-1.1,0-1.64C643.64,315,643.67,316.81,643.7,318.16Z"/><path d="M644.61,313.64l.09,4.5c0,.54,0,1.09,0,1.64l-.1-4.49C644.62,314.74,644.62,314.19,644.61,313.64Z"/><path d="M361.57,319.78l.09,4.49c0,2.22-1.86,4.49-5.74,6.25-7.63,3.47-20,3.67-27.56.45-3.73-1.59-5.62-3.71-5.67-5.86l-.09-4.49c0,2.15,1.93,4.27,5.66,5.85,7.59,3.23,19.94,3,27.57-.44C359.7,324.27,361.61,322,361.57,319.78Z"/><path class="cls-19" d="M389.72,298.53c26.14,11.1,26,29.84-.24,41.78s-68.9,12.63-95,1.54-26-29.83.25-41.77S363.59,287.44,389.72,298.53Zm-61.46,27.94c7.59,3.23,19.94,3,27.57-.44s7.65-8.89.06-12.12-19.92-3-27.55.45-7.67,8.89-.08,12.11"/><path class="cls-19" d="M294.54,346.34c-12.86-5.46-19.37-12.77-19.53-20.21l-.09-4.49c.16,7.44,6.66,14.75,19.52,20.21,26.14,11.09,68.77,10.4,95-1.54,13.34-6.07,19.93-13.89,19.77-21.57l.09,4.49c.17,7.68-6.42,15.5-19.77,21.57C363.3,356.74,320.67,357.44,294.54,346.34Z"/><path d="M391.14,297.89c26.91,11.43,26.8,30.72-.25,43s-71,13-97.87,1.59-26.8-30.72.26-43S364.23,286.47,391.14,297.89Zm-96.7,44c26.14,11.09,68.77,10.4,95-1.54s26.38-30.68.24-41.78-68.76-10.4-95,1.55-26.38,30.68-.25,41.77"/><path d="M411.25,318.71l.09,4.49c.17,7.91-6.62,16-20.35,22.2-27.06,12.3-71,13-97.87,1.59-13.25-5.62-19.94-13.15-20.11-20.81l-.09-4.49c.16,7.66,6.86,15.19,20.1,20.81,26.91,11.42,70.82,10.71,97.87-1.59C404.63,334.67,411.42,326.61,411.25,318.71Z"/><path class="cls-20" d="M128.41,421.87c-55.93-23.74-87-55.88-87.75-90.66l-.1-4.49c.75,34.78,31.82,66.92,87.75,90.66,56.81,24.11,132.45,36.67,213,35.37s156.35-16.32,213.46-42.28,88.65-59.76,88.86-95.16l.1,4.49C643.51,355.2,612,389,554.85,415s-132.9,41-213.45,42.28S185.21,446,128.41,421.87Z"/><path class="cls-20" d="M643.62,315.31c-.21,35.4-31.77,69.2-88.86,95.16s-132.91,41-213.46,42.28-156.18-11.26-213-35.37-88-56.89-87.76-92.3,31.77-69.2,88.87-95.16,132.9-41,213.44-42.28S499,198.9,555.85,223,643.83,279.9,643.62,315.31ZM293,342.5c26.92,11.42,70.82,10.71,97.87-1.59s27.16-31.59.25-43-70.81-10.71-97.86,1.59-27.17,31.6-.26,43"/><path d="M355.89,313.91c7.59,3.23,7.57,8.65-.06,12.12s-20,3.67-27.57.44-7.55-8.64.08-12.11S348.3,310.69,355.89,313.91Z"/><path d="M39.66,331.23l-.1-4.49c.75,34.89,31.93,67.15,88,91,57,24.2,132.89,36.8,213.7,35.49s156.87-16.38,214.16-42.42,88.95-60,89.16-95.48l.1,4.49c-.21,35.52-31.87,69.43-89.16,95.48S422.21,456.37,341.4,457.68s-156.71-11.29-213.7-35.49C71.59,398.38,40.41,366.13,39.66,331.23Z"/><path d="M644.62,315.29c-.21,35.52-31.87,69.43-89.16,95.48S422.11,451.88,341.3,453.19,184.6,441.9,127.6,417.7s-88.26-57.08-88-92.6,31.87-69.43,89.16-95.48,133.35-41.11,214.15-42.42,156.71,11.29,213.7,35.49S644.83,279.76,644.62,315.29ZM341.31,452.75c80.54-1.31,156.34-16.32,213.45-42.28s88.65-59.76,88.86-95.16-31-68.19-87.77-92.3-132.44-36.68-213-35.37S186.52,204,129.42,229.92s-88.67,59.75-88.87,95.16,31,68.19,87.76,92.3,132.45,36.67,213,35.37"/></g><g class="cls-2"><g class="cls-2"><g class="cls-21"><g class="cls-2"><path class="cls-5" d="M357.55,260.56l2.26,56.08a3.25,3.25,0,0,1,0,.54l-2.26-56.08a3.25,3.25,0,0,0,0-.54"/><path class="cls-6" d="M357.53,261.1l2.26,56.08a4.21,4.21,0,0,1-.11.6l-2.26-56.08a4.21,4.21,0,0,0,.11-.6"/><path class="cls-7" d="M357.42,261.7l2.26,56.08a3.48,3.48,0,0,1-.21.59l-2.26-56.09a3.38,3.38,0,0,0,.21-.58"/><path class="cls-8" d="M357.21,262.28l2.26,56.09a5.1,5.1,0,0,1-.29.57l-2.26-56.08a4.48,4.48,0,0,0,.29-.58"/><path class="cls-9" d="M356.92,262.86l2.26,56.08a6.82,6.82,0,0,1-.4.59l-2.26-56.08a6.82,6.82,0,0,0,.4-.59"/><path class="cls-10" d="M356.52,263.45l2.26,56.08a7.08,7.08,0,0,1-.52.59L356,264a7.08,7.08,0,0,0,.52-.59"/><path class="cls-11" d="M356,264l2.26,56.08a8.38,8.38,0,0,1-.68.64l-2.26-56.08A7,7,0,0,0,356,264"/><path class="cls-12" d="M355.32,264.68l2.26,56.08c-.28.24-.59.47-.92.7l-2.26-56.08c.33-.23.64-.47.92-.7"/><path class="cls-13" d="M354.4,265.38l2.26,56.08a15.89,15.89,0,0,1-1.43.85L353,266.23a15.89,15.89,0,0,0,1.43-.85"/><path class="cls-14" d="M353,266.23l2.26,56.08c-.27.15-.56.29-.85.42a26.25,26.25,0,0,1-5.95,1.89l-2.26-56.08a26.25,26.25,0,0,0,5.95-1.89c.29-.13.58-.27.85-.42"/><path class="cls-13" d="M346.17,268.54l2.26,56.08q-1,.21-2.1.36l-2.26-56.08q1.06-.15,2.1-.36"/><path class="cls-12" d="M344.07,268.9,346.33,325c-.56.08-1.13.14-1.69.19l-2.26-56.08c.57,0,1.13-.12,1.69-.19"/><path class="cls-11" d="M342.38,269.09l2.26,56.08c-.5.05-1,.09-1.49.11l-2.26-56.08c.5,0,1-.06,1.49-.11"/><path class="cls-10" d="M340.89,269.2l2.26,56.08c-.46,0-.92.05-1.38.05l-2.26-56.08c.46,0,.92,0,1.38-.05"/><path class="cls-9" d="M339.51,269.25l2.26,56.08h-1.32l-2.25-56.08h1.31"/><path class="cls-8" d="M338.2,269.26l2.25,56.08-1.27,0-2.26-56.09,1.28.05"/><path class="cls-7" d="M336.92,269.21l2.26,56.09c-.42,0-.84-.05-1.25-.09l-2.26-56.08c.41,0,.83.06,1.25.08"/><path class="cls-6" d="M335.67,269.13l2.26,56.08c-.42,0-.84-.08-1.25-.13L334.42,269c.41.05.83.1,1.25.13"/><path class="cls-5" d="M334.42,269l2.26,56.08-1.27-.17-2.26-56.09c.42.07.84.13,1.27.18"/><path class="cls-15" d="M333.15,268.82l2.26,56.09-1.32-.25-2.26-56.08c.44.09.87.17,1.32.24"/><path class="cls-16" d="M331.83,268.58l2.26,56.08c-.48-.1-1-.21-1.43-.34l-2.26-56.08c.47.13,1,.24,1.43.34"/><path class="cls-17" d="M330.4,268.24l2.26,56.08c-.58-.15-1.13-.32-1.67-.51l-2.26-56.08c.54.19,1.1.36,1.67.51"/><path class="cls-18" d="M328.73,267.73,331,323.81c-.49-.17-.95-.36-1.4-.55-3.15-1.41-4.75-3.28-4.83-5.2L322.5,262c.08,1.92,1.68,3.79,4.83,5.19.45.2.92.39,1.4.56"/></g></g></g><ellipse class="cls-22" cx="340.02" cy="261.27" rx="17.54" ry="7.97" transform="translate(-10.24 13.9) rotate(-2.31)"/></g><g class="cls-2"><path class="cls-19" d="M338.5,129.23c-1.23.12-2.44.3-3.61.53,0-1.5-.06-3-.1-4.49,1.18-.23,2.39-.41,3.62-.53Z"/><path class="cls-23" d="M391.23,115.27c-16.81-7.14-40.27-9.54-62.1-7.33,0-1.5-.06-3-.1-4.49,21.84-2.21,45.29.19,62.11,7.33,13.25,5.62,19.94,13.15,20.11,20.82l.09,4.49C411.18,128.42,404.48,120.89,391.23,115.27Z"/><path class="cls-19" d="M356,131.29c-4.75-2-11.34-2.69-17.49-2.06l-.09-4.49c6.14-.63,12.74.05,17.48,2.06,3.74,1.59,5.63,3.71,5.67,5.87l.1,4.49C361.61,135,359.72,132.88,356,131.29Z"/><path class="cls-19" d="M328.43,131.74c-3.87,1.77-5.79,4-5.74,6.26l-.1-4.5c0-2.22,1.87-4.48,5.75-6.25a29.19,29.19,0,0,1,6.45-2c0,1.49.07,3,.1,4.49A29.28,29.28,0,0,0,328.43,131.74Z"/><path class="cls-23" d="M293.37,116.86c-13.74,6.25-20.53,14.3-20.36,22.2l-.09-4.49c-.17-7.9,6.62-16,20.35-22.2,10.15-4.61,22.66-7.6,35.76-8.92,0,1.5.07,3,.1,4.49C316,109.26,303.52,112.25,293.37,116.86Z"/><path d="M409.24,131.64l.1,4.49c-.16-7.44-6.67-14.75-19.53-20.21-26.13-11.1-68.76-10.4-95,1.54C281.44,123.52,274.84,131.34,275,139l-.1-4.49c-.17-7.68,6.43-15.5,19.77-21.56,26.27-12,68.9-12.64,95-1.54C402.58,116.89,409.08,124.2,409.24,131.64Z"/><path d="M643.61,126.57l.09,4.49c-.74-34.78-31.82-66.93-87.76-90.67C499.14,16.28,423.5,3.72,343,5S186.61,21.35,129.51,47.31s-88.67,59.75-88.87,95.16c0,.55,0,1.09,0,1.64l-.09-4.49c0-.55,0-1.1,0-1.65.2-35.4,31.76-69.2,88.86-95.16S262.31,1.84,342.86.53,499,11.78,555.85,35.9C611.78,59.64,642.86,91.79,643.61,126.57Z"/><path class="cls-23" d="M643.7,131.05c0,.54,0,1.09,0,1.64l-.1-4.49c0-.55,0-1.1,0-1.64C643.64,127.9,643.67,129.7,643.7,131.05Z"/><path d="M644.6,126.54l.1,4.49c0,.54,0,1.09,0,1.64l-.1-4.49C644.62,127.63,644.61,127.08,644.6,126.54Z"/><path d="M361.56,132.67l.1,4.49c0,2.22-1.87,4.49-5.74,6.25-7.63,3.47-20,3.67-27.56.45-3.73-1.59-5.62-3.71-5.67-5.86l-.1-4.49c.05,2.15,1.94,4.27,5.67,5.85,7.59,3.23,19.93,3,27.56-.44C359.7,137.16,361.61,134.89,361.56,132.67Z"/><path class="cls-19" d="M294.53,159.23c-12.86-5.45-19.36-12.76-19.52-20.2l-.1-4.49c.16,7.44,6.67,14.75,19.53,20.2,26.13,11.1,68.76,10.41,95-1.54,13.34-6.06,19.94-13.88,19.77-21.56l.1,4.49c.16,7.68-6.43,15.5-19.77,21.56C363.3,169.64,320.67,170.33,294.53,159.23Z"/><path d="M411.25,131.6l.09,4.49c.17,7.9-6.62,16-20.36,22.2-27.05,12.3-71,13-97.86,1.59-13.25-5.62-19.94-13.15-20.11-20.81l-.1-4.49c.17,7.66,6.87,15.19,20.11,20.81,26.91,11.42,70.82,10.71,97.86-1.59C404.63,147.56,411.42,139.5,411.25,131.6Z"/><path class="cls-23" d="M86.55,212.4c-29.4-20-45.36-43.48-45.9-68.28l-.09-4.49c.53,24.8,16.5,48.26,45.9,68.28Z"/><path class="cls-23" d="M643.62,128.2c-.21,35.4-31.77,69.2-88.87,95.16s-132.91,41-213.45,42.28-156.18-11.26-213-35.37-88-56.89-87.76-92.3,31.76-69.2,88.86-95.16S262.31,1.84,342.86.53,499,11.78,555.85,35.9,643.82,92.79,643.62,128.2ZM293,155.39c26.92,11.42,70.82,10.71,97.87-1.59s27.16-31.59.25-43-70.81-10.71-97.87,1.59-27.16,31.6-.25,43"/><path d="M355.89,126.8c7.59,3.23,7.56,8.65-.07,12.12s-20,3.67-27.56.44-7.55-8.64.08-12.11S348.3,123.58,355.89,126.8Z"/><path class="cls-19" d="M389.71,111.43c26.14,11.09,26,29.83-.24,41.77s-68.9,12.64-95,1.54-26-29.83.24-41.77S363.58,100.33,389.71,111.43Zm-61.45,27.93c7.59,3.23,19.93,3,27.56-.44s7.66-8.89.07-12.12-19.93-3-27.55.45-7.67,8.89-.08,12.11"/><path d="M391.14,110.78c26.91,11.43,26.8,30.72-.26,43s-70.95,13-97.86,1.59-26.8-30.72.25-43S364.23,99.36,391.14,110.78Zm-96.7,44c26.13,11.1,68.76,10.41,95-1.54s26.38-30.68.24-41.77S321,101,294.68,113s-26.38,30.68-.24,41.77"/><path class="cls-23" d="M86.55,212.4l-.09-4.49a242.76,242.76,0,0,0,41.85,22.36c56.81,24.11,132.44,36.68,213,35.37s156.35-16.32,213.45-42.28,88.66-59.76,88.87-95.16l.1,4.49c-.22,35.4-31.78,69.2-88.88,95.16s-132.9,41-213.44,42.28-156.19-11.26-213-35.37A243.25,243.25,0,0,1,86.55,212.4Z"/><path d="M39.65,144.12l-.1-4.49c.75,34.89,31.94,67.15,88.05,91,57,24.2,132.89,36.8,213.7,35.49s156.86-16.38,214.15-42.42,88.95-60,89.16-95.48l.1,4.49c-.21,35.52-31.87,69.43-89.16,95.48S422.2,269.26,341.39,270.57s-156.7-11.29-213.69-35.49C71.59,211.27,40.4,179,39.65,144.12Z"/><path d="M644.61,128.18c-.21,35.52-31.87,69.43-89.16,95.48S422.1,264.77,341.3,266.08s-156.7-11.29-213.7-35.49S39.33,173.51,39.54,138s31.88-69.43,89.17-95.47S262.05,1.4,342.86.09s156.71,11.29,213.7,35.48S644.82,92.66,644.61,128.18ZM341.31,265.64c80.53-1.31,156.34-16.32,213.44-42.28s88.65-59.76,88.87-95.16-31-68.19-87.77-92.3S423.4-.77,342.86.53,186.51,16.85,129.41,42.81,40.75,102.57,40.55,138s31,68.19,87.76,92.3,132.44,36.68,213,35.37"/></g><path d="M799.87,282.69c0,3-2.1,5.13-7.47,5.13h-9.73v-18.2h9.77c5.2,0,6.85,2.15,6.85,4.66a3.73,3.73,0,0,1-2.52,3.7v.29A4.47,4.47,0,0,1,799.87,282.69ZM787,273v4h5.14c2,0,3-.67,3-2s-1.06-2-3-2Zm8.52,9c0-1.48-1.15-2.28-3.17-2.28H787v4.68h5.35C794.35,284.44,795.5,283.49,795.5,282Z"/><path d="M802.54,269.62h4.31v18.2h-4.31Z"/><path d="M809.75,269.62h5l8.45,12.24h.41V269.62h4.22v18.2h-4.91l-8.56-12.24H814v12.24h-4.23Z"/><path d="M844.64,284.77h-9l-1.13,3.05h-4.46l7-18.2h6.06l7.07,18.2h-4.49Zm-1.22-3.28-2.86-7.77h-.82l-2.86,7.77Z"/><path d="M852.48,269.62h5l8.45,12.24h.42V269.62h4.22v18.2h-4.92l-8.56-12.24h-.39v12.24h-4.22Z"/><path d="M873.13,278.72c0-5.72,4.07-9.71,10-9.71,4,0,8.08,1.78,9,7.13h-4.14a4.71,4.71,0,0,0-4.83-3.38,6,6,0,0,0,0,11.92,4.7,4.7,0,0,0,4.83-3.4h4.14c-.89,5.37-4.94,7.15-9,7.15C877.2,288.43,873.13,284.44,873.13,278.72Z"/><path d="M894.64,269.62H910v3.53H899v4h10.62v3.12H899v4h11v3.55H894.64Z"/><path d="M782.24,308.19h3.9c.15,1.71,1.56,2.79,4.55,2.81,2.81,0,4.35-.95,4.35-2.38,0-1.26-1-1.88-3.18-2.25L789.6,306c-3.44-.61-6.87-1.52-6.87-5.48,0-3.45,2.91-5.49,8-5.49,4.75,0,8,1.67,8.08,6.18h-3.88c-.28-1.65-1.56-2.75-4.29-2.75-2.47,0-3.77.84-3.77,2.25,0,1.11.89,1.8,2.75,2.15l2,.34c3.46.63,7.73,1.21,7.73,5.57,0,3.62-3,5.68-8.64,5.68S782.21,312.46,782.24,308.19Z"/><path d="M801.84,295.62h5.53l4.51,12.76h.32l4.51-12.76h5.52v18.2h-4.14v-11h-.36l-4,11h-3.36l-4-11H806v11h-4.14Z"/><path d="M839.05,310.77h-9L829,313.82h-4.46l7-18.2h6.06l7.07,18.2h-4.49Zm-1.22-3.28L835,299.72h-.82l-2.86,7.77Z"/><path d="M860.06,313.82l-3-5.42H851.2v5.42h-4.31v-18.2h9.55c4.88,0,7.46,2.27,7.46,6.52a5.89,5.89,0,0,1-3.1,5.4l3.55,6.28Zm-8.86-8.73h5c2.18,0,3.4-1,3.4-2.93s-1.22-2.92-3.4-2.92h-5Z"/><path d="M884.26,299.24h-6.82v14.58h-4.33V299.24H866.3v-3.62h18Z"/><path d="M893.23,304.72c0-5.72,4.08-9.71,10-9.71,4,0,8.08,1.78,9,7.13H908a4.71,4.71,0,0,0-4.83-3.38,6,6,0,0,0,0,11.92,4.71,4.71,0,0,0,4.83-3.4h4.14c-.89,5.37-4.94,7.15-9,7.15C897.31,314.43,893.23,310.44,893.23,304.72Z"/><path d="M932.43,295.62v18.2H928.1v-7.3h-9v7.3h-4.31v-18.2h4.31v7.3h9v-7.3Z"/><path d="M949.22,310.77h-9l-1.13,3.05h-4.46l7-18.2h6.07l7.06,18.2h-4.48ZM948,307.49l-2.86-7.77h-.83l-2.86,7.77Z"/><path d="M957.06,295.62h4.31v18.2h-4.31Z"/><path d="M964.28,295.62h5l8.45,12.24h.41V295.62h4.23v18.2h-4.92l-8.56-12.24h-.39v12.24h-4.22Z"/><rect x="609.17" y="292.28" width="161.63" height="2"/><path d="M782.34,148.8c0-5.72,4.08-9.71,10-9.71,4,0,8.08,1.78,9,7.13h-4.14a4.71,4.71,0,0,0-4.83-3.38,6,6,0,0,0,0,11.91,4.71,4.71,0,0,0,4.83-3.4h4.14c-.89,5.38-4.94,7.15-9,7.15C786.42,158.5,782.34,154.52,782.34,148.8Z"/><path d="M822,148.8c0,5.17-2.68,9.1-9.75,9.1h-8.36V139.69h8.36C819.29,139.69,822,143.62,822,148.8Zm-4.33,0c0-3.51-1.91-5.46-5.44-5.46h-4l0,10.92h4C815.73,154.26,817.64,152.31,817.64,148.8Z"/><path d="M823.88,154.39l10.68-10.73v-.35h-10.4v-3.62h15.93v3.52l-10.77,10.72v.35H840v3.62H823.88Z"/><path d="M842.66,139.69H858v3.54H847v4h10.61v3.12H847v4h11v3.56H842.66Z"/><path d="M866.65,148.8v-.24l-6.37-8.87H865l4.18,6h.41l4.16-6h4.73l-6.35,8.87v.24l6.5,9.1h-4.77l-4.27-6.2h-.41l-4.27,6.2h-4.76Z"/><path d="M878.85,148.8c0-5.72,4.07-9.71,10-9.71,4,0,8.09,1.78,9,7.13h-4.13a4.72,4.72,0,0,0-4.84-3.38,6,6,0,0,0,0,11.91,4.71,4.71,0,0,0,4.84-3.4h4.13c-.88,5.38-4.94,7.15-9,7.15C882.92,158.5,878.85,154.52,878.85,148.8Z"/><path d="M918,139.69V157.9h-4.33v-7.31h-9v7.31h-4.31V139.69h4.31V147h9v-7.31Z"/><path d="M934.83,154.84h-9l-1.12,3.06h-4.47l7-18.21h6.07l7.07,18.21H936Zm-1.21-3.27-2.86-7.78h-.82l-2.86,7.78Z"/><path d="M942.68,139.69h5l8.45,12.25h.41V139.69h4.23V157.9h-4.92l-8.56-12.25h-.39V157.9h-4.22Z"/><path d="M982.56,157.9h-2.7l-.05-2.65A7.73,7.73,0,0,1,973,158.5a9.4,9.4,0,0,1-9.71-9.7c0-5.72,4.08-9.71,10.06-9.71,3.94,0,7.93,1.84,8.9,6.41H978a4.61,4.61,0,0,0-4.53-2.66,6,6,0,0,0-.08,11.91,4.79,4.79,0,0,0,5-3.55h-5.29v-2.92h9.51Z"/><path d="M985.55,139.69h15.32v3.54h-11v4h10.61v3.12H989.87v4h11v3.56H985.55Z"/><rect x="609.17" y="143.07" width="161.63" height="2"/><g class="cls-2"><path class="cls-24" d="M352.7,77c6.73,2.86,6.55,7.8-.41,11s-18.06,3.53-24.78.68-6.55-7.8.41-11S346,74.17,352.7,77Z"/><g class="cls-2"><g class="cls-25"><g class="cls-2"><path class="cls-5" d="M357.63,82.11l2.09,48.35a2.9,2.9,0,0,1,0,.51l-2.1-48.35a4.35,4.35,0,0,0,0-.51"/><path class="cls-6" d="M357.61,82.62l2.1,48.35a2.87,2.87,0,0,1-.11.57l-2.09-48.35a3.78,3.78,0,0,0,.1-.57"/><path class="cls-7" d="M357.51,83.19l2.09,48.35a4.23,4.23,0,0,1-.19.57l-2.1-48.35a4.3,4.3,0,0,0,.2-.57"/><path class="cls-8" d="M357.31,83.76l2.1,48.35a4.75,4.75,0,0,1-.28.55L357,84.31a4.75,4.75,0,0,0,.28-.55"/><path class="cls-9" d="M357,84.31l2.1,48.35a6.15,6.15,0,0,1-.38.56l-2.1-48.35a6.15,6.15,0,0,0,.38-.56"/><path class="cls-10" d="M356.65,84.87l2.1,48.35c-.15.19-.31.38-.49.57l-2.09-48.35c.17-.19.34-.38.48-.57"/><path class="cls-11" d="M356.17,85.44l2.09,48.35a7.17,7.17,0,0,1-.63.59L355.53,86c.23-.19.44-.39.64-.59"/><path class="cls-12" d="M355.53,86l2.1,48.35a9.82,9.82,0,0,1-.84.66l-2.1-48.35a8.47,8.47,0,0,0,.84-.66"/><path class="cls-13" d="M354.69,86.69l2.1,48.35c-.38.26-.79.51-1.23.76l-2.1-48.35a13.78,13.78,0,0,0,1.23-.76"/><path class="cls-14" d="M353.46,87.45l2.1,48.35c-.37.21-.76.4-1.17.6-.61.28-1.24.54-1.9.77l-2.1-48.35a20.35,20.35,0,0,0,1.9-.77c.41-.2.8-.39,1.17-.6"/><path class="cls-26" d="M350.39,88.82l2.1,48.35c-.4.15-.81.28-1.23.41l-2.1-48.35c.42-.13.83-.26,1.23-.41"/><path class="cls-14" d="M349.16,89.23l2.1,48.35a30.87,30.87,0,0,1-3.62.86l-2.1-48.35a33,33,0,0,0,3.62-.86"/><path class="cls-13" d="M345.54,90.09l2.1,48.35c-.64.11-1.28.21-1.93.29l-2.1-48.35c.65-.08,1.3-.18,1.93-.29"/><path class="cls-12" d="M343.61,90.38l2.1,48.35c-.52.07-1,.12-1.57.17L342,90.55c.53,0,1-.1,1.57-.17"/><path class="cls-11" d="M342,90.55l2.1,48.35c-.48,0-.95.07-1.43.09l-2.1-48.35c.48,0,1,0,1.43-.09"/><path class="cls-10" d="M340.61,90.64l2.1,48.35-1.33,0-2.1-48.35,1.33,0"/><path class="cls-9" d="M339.28,90.68l2.1,48.35h-1.29L338,90.68h1.28"/><path class="cls-8" d="M338,90.68,340.09,139c-.41,0-.83,0-1.24-.05l-2.1-48.35c.41,0,.83,0,1.25.05"/><path class="cls-7" d="M336.75,90.63l2.1,48.35c-.41,0-.82,0-1.23-.08l-2.1-48.35c.41,0,.82.06,1.23.08"/><path class="cls-6" d="M335.52,90.55l2.1,48.35c-.41,0-.82-.08-1.22-.12l-2.1-48.35c.4,0,.81.09,1.22.12"/><path class="cls-5" d="M334.3,90.43l2.1,48.35c-.42-.05-.84-.11-1.24-.18l-2.1-48.35c.41.07.82.12,1.24.18"/><path class="cls-15" d="M333.06,90.25l2.1,48.35-1.3-.23L331.76,90l1.3.23"/><path class="cls-16" d="M331.76,90l2.1,48.35q-.72-.15-1.41-.33l-2.09-48.35c.45.12.92.23,1.4.33"/><path class="cls-17" d="M330.36,89.69,332.45,138c-.56-.15-1.1-.31-1.62-.49l-2.1-48.35c.52.18,1.06.34,1.63.49"/><path class="cls-18" d="M328.73,89.2l2.1,48.35c-.43-.15-.83-.31-1.23-.47-3.2-1.36-4.84-3.2-4.92-5.09l-2.1-48.35c.08,1.89,1.72,3.73,4.93,5.09.39.16.8.32,1.22.47"/></g></g></g></g></g></g></svg>