<svg width="375" height="45" viewBox="0 0 375 45" fill="none" xmlns="http://www.w3.org/2000/svg">
<path d="M44.4845 0V44.4626H31.4066V28.7656H13.0753V44.4706H0V0.00264706H13.0753V15.1597H31.4066V0H44.4845ZM174.223 0V12.6265H139.266V31.8388H174.231V44.4653H139.266V44.4706H126.039V0.00264706H132.582V0H174.223ZM343.026 0V0.0291176L343.063 0L361.312 19.1197V0H374.411V44.4706H361.312L343.026 24.7209V44.4706H329.927V0H343.026ZM248.372 0V15.1359L235.516 28.3024H248.359V44.4706H234.59V28.7338H213.949V44.4706H200.18V0.00794118H213.949V15.1359H234.603V0H248.372ZM105.201 0V0.00264706H107.504V44.4706H94.5296V34.8432H75.9944V44.4706H63.0197V0.00264706H64.349V0H105.203H105.201ZM311.392 0V12.6132H279.884V15.93H311.315V28.5432H279.884V31.8574H311.309V44.4706H270.455V44.46H266.907V0H270.535H311.392ZM94.5296 12.6265H75.9944V21.7006H94.5296V12.6265Z" fill="black"/>
</svg>
