<svg width="228" height="45" viewBox="0 0 228 45" fill="none" xmlns="http://www.w3.org/2000/svg">
<path fill-rule="evenodd" clip-rule="evenodd" d="M20.4314 0.0822296L19.8998 8.03153H15.9965L15.6395 3.08618H9.43135V14.9203H12.0931C12.2914 14.0374 12.4501 13.1546 12.8032 12.2698H15.6395V20.3949H12.9817L12.2716 17.7445H9.60986V30.2856H15.818L16.3495 24.809L20.6059 25.0065L20.963 33.3093H0.563478V30.4851L3.39977 29.9558V3.43772L0.0279541 2.90843V0.0842073H20.4274L20.4314 0.0822296ZM92.4296 44.4166C92.4296 43.5338 92.6279 42.8267 92.6279 42.1197L94.7561 41.5904V13.3482C93.8695 13.1507 93.1594 13.1507 92.2729 12.9927V10.6958L99.0165 9.81296C99.2148 10.6958 99.548 11.5786 99.7265 12.2856C99.9249 12.2856 99.9249 12.0881 100.084 12.0881C101.68 10.1448 103.808 9.61546 106.292 9.79123C109.306 10.1467 111.082 12.0881 111.792 14.7366C112.149 15.9729 112.502 17.2093 112.502 18.4456C112.7 21.096 112.7 23.7445 112.303 26.2171C112.105 27.1 111.772 28.1605 111.417 29.0414C110.175 31.6918 108.045 33.2797 105.209 33.4574C103.612 33.6549 102.194 33.4574 100.774 32.7504H100.417V41.6042L102.723 42.1335C102.723 42.8406 102.525 43.5456 102.525 44.4304H92.4137L92.4296 44.4166ZM100.413 29.7563C102.186 30.4634 103.983 30.6391 105.734 29.9538C106.051 29.8146 106.305 29.5624 106.444 29.2468C106.643 28.364 106.976 27.4811 106.976 26.5963C107.333 23.9459 107.333 21.1197 107.174 18.4713C107.17 17.505 106.99 16.5474 106.643 15.6451C106.111 13.7017 104.691 12.9947 102.739 13.3482H102.382C101.141 13.5457 100.431 14.4087 100.431 15.6451V29.7543L100.413 29.7563ZM167.823 30.2896L170.13 30.8189C170.13 31.7017 170.13 32.4087 169.932 33.2915H162.127V17.3929C162.127 16.6859 161.929 15.9808 161.77 15.2738C161.572 14.391 160.883 14.0374 159.997 13.8617C159.11 13.6859 158.4 13.6642 157.69 14.0592C156.98 14.4542 156.448 14.7662 156.448 15.649V30.3093L158.755 30.8386C158.755 31.5456 158.557 32.4285 158.557 33.3113H148.624V30.8426L150.931 30.3133V13.5318C150.044 13.3344 149.334 13.3344 148.447 13.1764V10.676L154.993 9.79321L155.524 11.9124C156.056 11.5569 156.589 11.0295 157.121 10.676C159.249 9.26391 161.732 9.08617 164.039 9.96898C165.991 10.676 167.054 12.2659 167.411 14.385C167.609 14.9143 167.609 15.6214 167.609 16.1507V29.3988C167.738 29.6748 167.799 29.9774 167.788 30.2817L167.823 30.2896ZM30.523 30.4871L32.8298 31.0163C32.8298 31.8992 32.6314 32.6062 32.6314 33.489H22.5199C22.5199 32.782 22.5199 31.8992 22.7183 31.0163L24.8465 30.4871C25.0448 29.9578 25.0448 14.5885 24.8465 13.7056C24.1364 13.5081 23.2498 13.5081 22.3632 13.3501V10.8538L28.9085 9.97096L29.4401 12.0901L29.9716 11.5608C32.0999 9.79518 34.5831 9.26392 37.2449 9.97096C39.5516 10.5003 40.815 12.0901 41.3247 14.387C41.5231 14.9163 41.5231 15.6234 41.5231 16.1526V30.2836L43.8298 30.8129V33.3093H36.025V17.944C36.025 17.4147 36.025 16.7076 35.8267 16.1783C35.6284 14.7662 34.7616 14.0592 33.52 13.8814C32.4549 13.6839 31.5683 13.8814 30.8582 14.7642C30.5012 15.1197 30.5012 15.4713 30.5012 16.0006V30.4851L30.523 30.4871ZM203.676 12.9769C202.789 12.9769 202.079 12.7794 201.192 12.7794V10.6602L208.821 9.77741C209.178 10.6602 209.531 11.543 209.531 12.6016V30.4416L211.837 30.9709C211.837 31.8537 211.639 32.5608 211.639 33.4436H205.094C204.895 32.9143 204.737 32.2073 204.562 31.5002C204.364 31.6977 204.205 31.8557 204.031 31.8557C201.369 34.3284 197.823 33.9749 195.516 32.9163C193.743 32.0335 192.854 30.6194 192.501 28.678C192.303 27.9709 192.303 27.4416 192.303 26.7346V13.1329C191.416 12.9354 190.529 12.9354 189.819 12.7774V10.676L197.269 9.79321C197.468 10.676 197.801 11.3831 197.801 12.2659V25.6898C197.801 26.2191 197.801 26.9262 197.999 27.4555C198.197 29.0453 199.241 30.1059 200.835 30.1059C201.367 30.1059 202.077 29.9084 202.609 29.9084C203.14 29.7109 204.027 28.6721 204.027 28.1428V13.4805C203.67 13.283 203.67 13.125 203.67 12.9512L203.676 12.9769ZM79.8765 23.0434C79.8765 24.9867 80.2335 26.5983 81.1181 28.1665C82.0047 29.4028 83.2463 30.1098 84.843 30.2856C86.4396 30.2856 87.8578 29.9301 89.2779 29.4028C89.4762 29.4028 89.6349 29.2053 89.988 29.2053C90.345 29.9123 90.5195 30.6174 90.8745 31.3244C90.5175 31.6799 89.988 31.8537 89.6329 32.2073C86.7966 33.7971 83.7818 34.3264 80.7631 33.2678C78.1013 32.5608 76.5067 30.7952 75.263 28.3225C74.0214 25.6721 73.6664 22.8459 74.0214 20.0197C74.2198 18.254 74.553 16.4647 75.263 14.8966C76.5047 12.2461 78.4365 10.4805 81.2926 9.95121C84.1488 9.42192 86.6142 9.75371 88.7424 11.7168C89.984 12.9532 90.6941 14.5411 91.2256 16.1329C91.7572 17.8985 91.9357 19.4904 91.9357 21.256C91.9357 21.7853 91.5787 22.3166 91.4041 23.0216H79.8745L79.8765 23.0434ZM86.7946 20.0414C86.7946 19.3343 86.5963 18.805 86.5963 18.2758C86.398 16.8636 86.2393 15.6253 85.5312 14.389C84.8212 12.9769 83.5795 12.6234 82.1594 13.1527C81.6278 13.3501 81.2728 13.6819 80.9178 14.2132C80.2077 16.1566 79.8527 18.1 79.6762 20.0394V20.5687L86.7709 20.0394L86.7946 20.0414ZM188.445 23.0434L176.915 23.2409C176.717 24.1237 176.915 24.8307 177.114 25.5378C177.295 26.698 177.785 27.7889 178.532 28.6977C179.418 29.7583 180.483 30.2876 181.904 30.2876C183.324 30.2876 184.74 30.0901 186.16 29.5805C186.517 29.383 186.692 29.383 187.047 29.225C187.404 29.9321 187.578 30.6372 187.933 31.3442C187.735 31.3442 187.735 31.5417 187.576 31.5417C185.093 33.3073 182.431 33.8386 179.416 33.6609C175.846 33.3054 173.387 31.1882 172.143 27.8347C170.37 23.5963 170.547 19.3561 172.342 15.1158C173.407 12.4654 175.356 10.524 178.371 9.99268C180.678 9.46339 182.983 9.63719 184.916 11.0532C186.335 12.1138 187.223 13.5259 187.931 14.94C188.641 16.8834 188.996 19.1783 188.996 21.2994C188.996 21.8287 188.639 22.36 188.465 23.0651L188.445 23.0434ZM184.01 20.0414C184.01 18.4515 183.812 17.0394 183.3 15.6253C183.102 14.9183 182.768 14.2132 182.235 13.6819C181.348 12.4456 178.51 12.7991 178.155 14.389C177.798 15.6253 177.445 16.8617 177.268 18.2758C177.07 18.9828 177.07 19.6879 177.07 20.5727L183.988 20.0434L184.01 20.0414ZM147.642 23.0434L136.112 23.2409C136.112 25.36 136.469 27.1276 137.709 28.7175C138.596 29.778 139.661 30.3073 140.883 30.3073C142.301 30.3073 143.897 30.1098 145.139 29.6003C145.496 29.4028 145.67 29.4028 146.026 29.2448C146.383 29.9518 146.557 30.6569 146.912 31.364C146.555 31.5614 146.381 31.7194 146.202 31.8932C143.662 33.4605 140.625 34.0274 137.687 33.4831C134.851 32.9538 132.897 31.1862 131.658 28.7135C130.416 26.0631 130.061 23.4147 130.239 20.5885C130.438 18.6451 130.771 16.8794 131.481 15.1118C132.368 12.9927 133.788 11.4028 135.916 10.52C138.399 9.45944 140.883 9.45944 143.366 10.7175C144.962 11.6003 146.027 13.0144 146.738 14.6043C147.624 16.7234 147.979 19.0203 147.979 21.3192C148.178 21.8485 147.781 22.3798 147.622 23.0848L147.642 23.0434ZM143.207 20.0414C143.207 19.3343 143.009 18.6293 143.009 17.9222C142.81 16.6859 142.652 15.4496 141.944 14.3673C141.057 12.9552 139.815 12.4239 138.373 13.1309C138.016 13.3284 137.663 13.4864 137.487 14.0137C136.777 15.4259 136.422 17.0157 136.245 18.6056C136.245 19.1349 136.047 19.6661 136.047 20.3712C138.354 20.3712 140.658 20.1737 143.142 20.0157L143.207 20.0414ZM64.7767 9.97293L65.3083 12.0921C65.6653 11.8946 65.8398 11.7366 66.1949 11.5628C67.7915 10.68 69.5667 10.1507 71.3398 9.97293C72.2264 9.77544 72.9365 10.1704 73.4681 10.8558L72.758 17.0374C71.5164 17.0374 70.2747 16.8399 69.0331 16.8399C68.8348 15.7794 68.6761 14.7208 68.6761 13.4825C67.7895 13.4825 67.0795 13.838 66.3694 14.3653V30.2639L68.6761 30.7932C68.6761 31.5002 68.6761 32.383 68.4778 33.0901H58.5686V30.7932L60.6968 30.2639V13.5002C59.8102 13.3028 59.1002 13.3027 58.2136 13.1448V10.676C60.3418 10.676 62.47 10.3205 64.7589 9.96898L64.7767 9.97293ZM212.899 33.3093C212.899 32.4265 212.899 31.7194 213.097 31.0124L215.225 30.4831V13.7017C214.515 13.5042 213.628 13.5042 212.742 13.3462V10.8538L219.485 9.97096L220.017 11.9143L222.853 10.678C223.918 10.3225 224.805 10.1487 225.868 9.97096C226.755 9.77346 227.465 9.97096 227.996 10.8538L227.286 17.0355C226.045 17.0355 224.803 16.838 223.561 16.838C223.363 15.7774 223.204 14.5411 223.204 13.4805L220.898 14.3633V30.4397L223.204 30.969C223.204 31.676 223.006 32.5588 223.006 33.2659H212.895L212.899 33.3093ZM124.716 13.5062L122.409 14.389V30.4653L124.716 30.9946C124.716 31.8774 124.517 32.5845 124.517 33.2915H114.584V30.9946L116.713 30.4653V13.6839C115.826 13.4864 115.116 13.4864 114.229 13.3284V10.8538L120.973 9.97096L121.505 11.9143L123.456 10.8538C124.698 10.3245 125.939 9.97096 127.36 9.79321C128.425 9.79321 129.133 10.1487 129.666 10.8538L128.956 17.0355C127.715 17.0355 126.473 16.838 125.231 16.838L124.7 13.4805L124.716 13.5062ZM51.9876 5.55688V10.3265H56.0893C55.891 11.387 55.891 12.2698 55.891 13.3284C54.6494 13.3284 53.4077 13.5259 52.1661 13.6839V28.6977C52.3645 29.5805 52.8762 30.2876 53.9393 30.2876H56.246C56.246 31.1704 56.4444 31.8774 56.4444 32.7603C55.9128 33.1158 55.2027 33.2896 54.4927 33.4673C53.0745 33.8228 51.6564 33.8228 50.2363 33.6648C48.108 33.3093 46.6661 31.8992 46.3329 29.6023V13.7037C45.4463 13.5062 44.5597 13.3482 43.6711 13.3482C43.6711 12.4654 43.6711 11.4048 43.8695 10.524C44.9346 10.524 45.8212 10.3265 46.8843 10.3265L48.1259 5.9104L52.0293 5.5549L51.9876 5.55688Z" fill="black"/>
</svg>
