<svg width="155" height="43" viewBox="0 0 155 43" fill="none" xmlns="http://www.w3.org/2000/svg">
<path d="M0 10.4339H9.19482L14.5488 24.1317L19.9724 10.4339H28.925L15.4443 42.861H6.43491L10.125 34.2683L0 10.4339Z" fill="black"/>
<path d="M38.2514 9.88864C31.3429 9.88864 26.9755 16.0845 26.9755 22.2546C26.9755 29.1977 31.7638 34.7024 38.1203 34.7024C42.862 34.7024 44.6499 31.8134 44.6499 31.8134V34.0639H52.6696V10.4341H44.6499V12.5822C44.6499 12.5822 42.6552 9.88864 38.2514 9.88864ZM39.9572 17.4823C43.1448 17.4823 44.7898 20.0046 44.7898 22.2805C44.7898 24.7313 43.0275 27.1363 39.9572 27.1363C37.4126 27.1363 35.113 25.0568 35.113 22.3848C35.113 19.6751 36.9627 17.4823 39.9572 17.4823Z" fill="black"/>
<path d="M55.4315 34.0637V0H63.8195V12.6641C63.8195 12.6641 65.8119 9.89157 69.9846 9.89157C75.0888 9.89157 78.0792 13.6946 78.0792 19.1289V34.0637H69.7526V21.1748C69.7526 19.3357 68.8765 17.559 66.8922 17.559C64.8722 17.559 63.8195 19.3626 63.8195 21.1748V34.0637H55.4315Z" fill="black"/>
<path d="M92.3806 9.89143C84.4691 9.89143 79.7582 15.9074 79.7582 22.3529C79.7582 29.6879 85.462 34.7024 92.4106 34.7024C99.1454 34.7024 105.039 29.9155 105.039 22.4759C105.039 14.3357 98.8683 9.89143 92.3806 9.89143ZM92.4562 17.5519C95.2508 17.5519 97.1844 19.8795 97.1844 22.3616C97.1844 24.4787 95.3826 27.0899 92.4562 27.0899C89.7747 27.0899 87.7623 24.9389 87.7623 22.3385C87.7623 19.8334 89.4354 17.5519 92.4562 17.5519Z" fill="black"/>
<path d="M119.013 9.89143C111.101 9.89143 106.39 15.9074 106.39 22.3529C106.39 29.6879 112.094 34.7024 119.043 34.7024C125.778 34.7024 131.671 29.9155 131.671 22.4759C131.671 14.3357 125.5 9.89143 119.013 9.89143ZM119.088 17.5519C121.883 17.5519 123.817 19.8795 123.817 22.3616C123.817 24.4787 122.015 27.0899 119.088 27.0899C116.407 27.0899 114.394 24.9389 114.394 22.3385C114.394 19.8334 116.067 17.5519 119.088 17.5519Z" fill="black"/>
<path d="M138.29 34.5654C141.366 34.5654 143.86 32.0716 143.86 28.9954C143.86 25.9192 141.366 23.4254 138.29 23.4254C135.213 23.4254 132.72 25.9192 132.72 28.9954C132.72 32.0716 135.213 34.5654 138.29 34.5654Z" fill="black"/>
<path d="M145.69 21.3793H135.662L144.562 0H154.552L145.69 21.3793Z" fill="black"/>
</svg>
